<svg width="44" height="80" viewBox="0 0 44 80" fill="none" xmlns="http://www.w3.org/2000/svg">
<path d="M7.4652 0.00626001C8.68196 0.951522 9.77705 3.73007 9.9703 4.45355C11.6603 5.1976 12.717 6.17327 13.1088 7.34926C13.3642 8.13808 13.3066 8.99484 12.9478 9.74237C12.2535 12.9618 11.0162 15.1412 9.2465 16.2367C8.49411 16.7133 7.62233 16.9678 6.73156 16.9709C6.53998 16.9711 6.34864 16.9576 6.15897 16.9307C4.57897 17.2723 3.57335 17.816 3.32194 18.459C3.12064 18.9822 3.48298 19.5321 3.49283 19.5321C4.88137 21.0202 5.48438 22.5486 5.25355 24.0036C5.04241 25.3307 4.17994 26.2053 3.65387 26.6176V30.2573H1.41717C1.61847 31.554 1.60863 32.9313 0.592277 33.4142C0.438957 33.4797 0.276178 33.5205 0.110045 33.5349C0.251405 35.5927 0.0402605 37.9536 0 38.3354C0.0805211 38.8988 0.483127 41.4654 2.11234 42.2265L2.29127 42.3472L7.85528 47.7362C8.37254 47.8293 8.84443 48.0909 9.1973 48.4802C9.98193 49.345 10.2333 50.8125 9.96135 52.8533H15.5137L15.6748 53.5374C15.715 53.7163 16.6589 57.9007 14.1153 63.2494L19.0942 68.3066L22.7624 68.7385L22.9834 69.0909C23.5873 70.0361 26.4727 74.741 24.8846 76.8828C24.9544 78.0284 25.3167 79.3868 25.9806 79.8286C26.1624 79.9479 26.3769 80.0077 26.5943 79.9994C26.7825 79.9919 26.9686 79.9579 27.1472 79.8984C27.6205 78.5319 28.4454 77.6367 29.5915 77.2343C30.0417 77.0816 30.5146 77.0069 30.9899 77.0134C32.4885 77.0134 34.0273 77.6769 35.0839 78.26L35.1135 77.6769C34.48 76.3194 34.4398 75.1631 34.9828 74.2581C35.8677 72.77 37.9299 72.6904 38.0247 72.6904C38.3262 72.7101 38.5777 72.7297 38.8183 72.7297C38.9498 72.7297 39.0805 72.7297 39.1807 72.7199C38.8802 72.4679 38.6222 72.1693 38.4166 71.8355C37.4709 70.2767 38.3862 68.6688 39.5126 67.7029L40.2471 60.4843L41.1024 60.6354C41.4603 60.3233 42.3899 58.4739 43.0135 55.7696L43.1137 55.3466L43.5064 55.1677C44.1193 54.886 44.1193 52.805 43.7373 50.9851C42.0982 49.125 42.6413 46.4708 42.8318 45.7473L41.7663 37.2516L41.7556 28.5144L40.1263 20.4112L40.6095 7.46194C38.6949 8.14338 38.2421 3.23732 38.1518 0L7.4652 0.00626001ZM34.752 32.7801C34.5131 33.2273 33.8466 33.6377 33.8466 33.6377L34.285 33.8282C34.0849 34.2158 33.744 34.5122 33.3322 34.6563L33.6363 34.9711C33.2463 35.59 32.3981 36.0183 32.3981 36.0183L32.6361 36.4091C32.2362 36.9457 31.1303 37.2945 31.1303 37.2945L31.4641 37.6754C31.0528 38.1763 30.4741 38.5114 29.8349 38.6189L30.0353 39.0187C29.6729 39.5427 28.262 39.6286 28.262 39.6286L28.415 39.9425C27.404 40.6096 26.7563 40.6901 26.7563 40.6901L26.8797 40.9763C26.2221 41.1667 24.9454 41.8142 24.1644 42.2327C24.1827 42.2656 24.1955 42.3012 24.202 42.3383C24.7933 42.1755 25.6129 41.9278 26.0038 41.7284L26.07 41.9278C26.07 41.9278 26.4413 41.6595 27.2707 41.5093L27.3468 41.757C27.3468 41.757 28.109 41.1185 28.5474 41.2141L28.6369 41.5093C29.0152 41.2566 29.4719 41.1484 29.9234 41.2043L29.9324 41.5665C29.9324 41.5665 30.6669 41.2141 31.1241 41.2902L31.1903 41.6041C31.1903 41.6041 31.8291 41.4136 32.3337 41.5379L32.3149 41.8518C32.5943 41.7257 32.9116 41.7122 33.2006 41.8142L33.0736 42.121C33.0736 42.121 33.6104 42.0065 33.9504 42.121L33.9405 42.2739C33.9405 42.2739 34.9694 42.3213 35.78 42.7022C35.3871 42.8661 34.9734 42.975 34.5507 43.026C34.1884 43.0734 33.9316 43.0832 33.9316 43.0832V43.2352C33.588 43.3399 33.0548 43.2165 33.0548 43.2165L33.1783 43.5303C32.8853 43.6217 32.5686 43.5981 32.2925 43.4642V43.7691C31.787 43.8827 31.1581 43.6734 31.1581 43.6734L31.082 43.9882C30.615 44.0544 29.8912 43.6833 29.8912 43.6833L29.8715 44.0356C29.4186 44.0788 28.9653 43.9572 28.5948 43.6931L28.5 43.9972C28.0616 44.0732 27.3181 43.4168 27.3181 43.4168L27.2421 43.6448C26.4127 43.474 26.0513 43.1977 26.0513 43.1977L25.9743 43.3971C25.5932 43.1878 24.7745 42.9213 24.185 42.721C24.1524 42.8179 24.0997 42.9068 24.0303 42.9819C23.9609 43.057 23.8764 43.1165 23.7824 43.1565C23.768 44.4318 23.6499 47.0261 22.9575 48.0295L22.5039 47.7156C23.0639 46.9045 23.2124 44.591 23.2312 43.1789C23.119 43.1381 23.019 43.0694 22.9408 42.9793C22.8625 42.8892 22.8085 42.7806 22.7839 42.6638C22.1934 42.8355 21.4123 43.0734 21.0312 43.2639L20.9641 43.0635C20.9641 43.0635 20.5928 43.3318 19.7635 43.474L19.6874 43.2352C19.6874 43.2352 18.9251 43.8738 18.4867 43.7781L18.3973 43.474C18.019 43.7264 17.5638 43.8376 17.1116 43.7879L17.1018 43.4257C17.1018 43.4257 16.3681 43.7781 15.911 43.7021L15.8358 43.3908C15.8358 43.3908 15.197 43.5813 14.7014 43.4481L14.7112 43.1431C14.4318 43.2703 14.1138 43.2838 13.8246 43.1807L13.9579 42.8668C13.9579 42.8668 13.4211 42.9813 13.082 42.8668L13.0909 42.7139C13.0909 42.7139 12.0522 42.6665 11.2524 42.2855C11.6453 42.1215 12.0589 42.0126 12.4817 41.9618C12.8395 41.9144 13.1008 41.9045 13.1008 41.9045V41.7525C13.4434 41.6479 13.9767 41.7713 13.9767 41.7713L13.8532 41.4574C14.1464 41.3661 14.4634 41.3897 14.7398 41.5236V41.2097C15.2444 41.105 15.8635 41.3045 15.8635 41.3045L15.953 40.9995C16.4102 40.9333 17.1349 41.3045 17.1349 41.3045L17.1635 40.9468C17.614 40.9068 18.0639 41.0306 18.4304 41.2955L18.5261 40.9906C18.9735 40.9146 19.708 41.571 19.708 41.571L19.793 41.3331C20.6223 41.5048 20.9847 41.791 20.9847 41.791L21.0509 41.5906C21.4222 41.791 22.214 42.0575 22.8045 42.2479C22.8068 42.2317 22.81 42.2155 22.8143 42.1996C22.0395 41.7632 20.7914 41.0764 20.1303 40.8689L20.2725 40.6007C20.2725 40.6007 19.6248 40.496 18.6344 39.8012L18.8061 39.4864C18.8061 39.4864 17.3952 39.363 17.0427 38.8192L17.2619 38.4293C16.6238 38.3024 16.0524 37.9508 15.6515 37.4385L16.0139 37.0673C16.0139 37.0673 14.908 36.6765 14.518 36.1435L14.7658 35.7527C14.7658 35.7527 13.9364 35.2957 13.5553 34.6671L13.889 34.372C13.4759 34.2178 13.1379 33.9108 12.9451 33.5143L13.3924 33.3238C13.3924 33.3238 12.7447 32.8955 12.5157 32.4385L12.6776 32.2954C12.6776 32.2954 11.6872 31.1999 11.2461 30.0096V29.9998C12.4539 30.4657 13.5096 31.4852 13.5096 31.4852L13.6617 31.3323C14.1091 31.5701 14.5197 32.2373 14.5197 32.2373L14.7193 31.7991C15.1074 31.9988 15.4043 32.3397 15.5486 32.7515L15.8627 32.4465C16.4728 32.8472 16.9014 33.6851 16.9014 33.6851L17.3022 33.4473C17.839 33.847 18.1879 34.9613 18.1879 34.9613L18.5691 34.6188C19.0691 35.0343 19.4037 35.6153 19.512 36.2562L19.9129 36.047C20.4371 36.4091 20.5221 37.8284 20.5221 37.8284L20.8371 37.6665C21.5036 38.6762 21.5805 39.3236 21.5805 39.3236L21.857 39.1993C22.0467 39.8477 22.6765 41.0854 23.0952 41.8661C23.1418 41.8349 23.1936 41.8124 23.2482 41.7999C22.9619 40.7804 22.4564 39.0276 22.0565 38.2666L22.409 38.1423C22.409 38.1423 21.9518 37.5046 21.6933 36.0756L22.103 35.9522C22.103 35.9522 21.008 34.6376 21.1699 33.8855L21.6933 33.7325C21.2578 33.0795 21.0676 32.2935 21.1565 31.5138L21.7756 31.504C21.7756 31.504 21.1753 30.2278 21.2996 29.4471L21.8427 29.3228C21.8427 29.3228 21.5278 28.2273 21.738 27.3706L22.2748 27.3894C22.0553 26.9059 22.0312 26.3564 22.2077 25.8556L22.7517 26.0846C22.7517 26.0846 22.5611 25.1608 22.7517 24.5795L23.0201 24.5893C23.0201 24.5893 23.1096 22.8079 23.7537 21.4271C23.7537 21.4182 23.7636 21.4182 23.7636 21.4182C24.3827 22.8365 24.4113 24.6081 24.4113 24.6081H24.6797C24.8587 25.1992 24.6412 26.1132 24.6412 26.1132L25.1852 25.9039C25.3433 26.4067 25.3023 26.9508 25.0707 27.4242H25.6075C25.7981 28.2908 25.4456 29.3765 25.4456 29.3765L25.9824 29.5097C26.096 30.3003 25.4581 31.5576 25.4581 31.5576L26.0674 31.5961C26.1389 32.3732 25.9294 33.1502 25.4769 33.7862L25.9913 33.9481C26.1345 34.71 24.9911 35.9861 24.9911 35.9861L25.4008 36.1292C25.1056 37.5601 24.6198 38.1771 24.6198 38.1771L24.9714 38.3006C24.5625 39.0535 24.0096 40.7581 23.6947 41.7775C23.7695 41.7974 23.8405 41.8294 23.9049 41.8723C24.3433 41.1015 25.0098 39.8915 25.2192 39.244L25.4957 39.3773C25.4957 39.3773 25.6012 38.7298 26.2866 37.7389L26.6015 37.9106C26.6015 37.9106 26.6686 37.1416 26.9236 36.5969C26.955 36.5319 26.9994 36.474 27.054 36.4269C27.1087 36.3797 27.1725 36.3442 27.2414 36.3227C27.3104 36.3011 27.383 36.294 27.4548 36.3016C27.5266 36.3092 27.5961 36.3315 27.659 36.3671C27.7882 35.7301 28.1395 35.1597 28.6503 34.7574L29.0216 35.1196C29.0216 35.1196 29.4126 34.0151 29.9458 33.6342L30.3296 33.8756C30.3296 33.8756 30.7868 33.0466 31.4158 32.6755L31.711 32.9992C31.8664 32.5903 32.1724 32.2562 32.5663 32.0656L32.756 32.5127C32.756 32.5127 33.1854 31.8554 33.6426 31.6274L33.7858 31.7884C33.7858 31.7884 34.8817 30.7984 36.0726 30.37H36.0824C35.6154 31.5603 34.5954 32.6174 34.5954 32.6174L34.752 32.7801Z" fill="#10A882"/>
</svg>
