<svg width="66" height="110" viewBox="0 0 66 110" fill="none" xmlns="http://www.w3.org/2000/svg">
<path d="M14.3515 5.00783C15.8757 6.18941 17.2475 9.66263 17.4896 10.567C19.6066 11.497 20.9302 12.7166 21.4211 14.1866C21.741 15.1727 21.6688 16.2436 21.2194 17.1781C20.3497 21.2024 18.7997 23.9266 16.5829 25.296C15.6404 25.8918 14.5483 26.21 13.4325 26.2138C13.1925 26.214 12.9528 26.1972 12.7152 26.1635C10.736 26.5905 9.47624 27.2702 9.16132 28.0739C8.90915 28.7279 9.36305 29.4154 9.37538 29.4154C11.1148 31.2755 11.8701 33.1859 11.581 35.0047C11.3165 36.6636 10.2361 37.7569 9.57711 38.2722V42.8219H6.77526C7.02742 44.4429 7.01509 46.1644 5.74193 46.768C5.54987 46.85 5.34596 46.9009 5.13785 46.9189C5.31493 49.4911 5.05043 52.4423 5 52.9196C5.10087 53.6239 5.6052 56.8322 7.64607 57.7835L7.87022 57.9344L14.8401 64.6707C15.4881 64.787 16.0792 65.1141 16.5212 65.6007C17.5041 66.6817 17.819 68.5161 17.4783 71.0671H24.4337L24.6354 71.9223C24.6858 72.1459 25.8682 77.3764 22.6819 84.0623L28.9189 90.3839L33.5139 90.9238L33.7907 91.3642C34.5472 92.5458 38.1616 98.4269 36.1723 101.104C36.2597 102.536 36.7136 104.234 37.5452 104.786C37.773 104.936 38.0418 105.01 38.3141 105C38.5498 104.991 38.7829 104.948 39.0067 104.874C39.5996 103.166 40.6329 102.047 42.0685 101.544C42.6324 101.353 43.2249 101.259 43.8203 101.267C45.6975 101.267 47.6252 102.097 48.9488 102.826L48.9858 102.097C48.1923 100.4 48.1418 98.9546 48.8221 97.8233C49.9306 95.9632 52.5139 95.8637 52.6327 95.8637C53.0104 95.8883 53.3253 95.9128 53.6268 95.9128C53.7915 95.9128 53.9551 95.9128 54.0807 95.9006C53.7043 95.5856 53.3811 95.2123 53.1236 94.795C51.9389 92.8465 53.0854 90.8366 54.4965 89.6293L55.4166 80.6059L56.488 80.7948C56.9363 80.4047 58.1008 78.0929 58.8819 74.7125L59.0074 74.1837L59.4995 73.9602C60.2672 73.608 60.2672 71.0068 59.7886 68.7319C57.7354 66.4067 58.4157 63.0889 58.6544 62.1845L57.3196 51.5648L57.3062 40.6432L55.2653 30.5142L55.8705 14.3275C53.4721 15.1793 52.905 9.04668 52.7918 5L14.3515 5.00783ZM48.533 45.9754C48.2337 46.5344 47.3988 47.0475 47.3988 47.0475L47.948 47.2856C47.6974 47.7701 47.2703 48.1405 46.7544 48.3207L47.1354 48.7142C46.6468 49.4878 45.5843 50.0233 45.5843 50.0233L45.8824 50.5118C45.3815 51.1825 43.9962 51.6184 43.9962 51.6184L44.4143 52.0947C43.8991 52.7207 43.1741 53.1396 42.3734 53.274L42.6244 53.7737C42.1705 54.4288 40.4031 54.5361 40.4031 54.5361L40.5948 54.9285C39.3283 55.7624 38.5169 55.863 38.5169 55.863L38.6716 56.2207C37.8478 56.4588 36.2485 57.2682 35.2701 57.7913C35.2931 57.8323 35.3091 57.8769 35.3172 57.9232C36.058 57.7198 37.0846 57.4101 37.5744 57.1608L37.6573 57.4101C37.6573 57.4101 38.1224 57.0748 39.1613 56.887L39.2566 57.1966C39.2566 57.1966 40.2115 56.3984 40.7606 56.5181L40.8727 56.887C41.3467 56.5712 41.9187 56.4359 42.4843 56.5058L42.4956 56.9585C42.4956 56.9585 43.4157 56.5181 43.9884 56.6131L44.0713 57.0055C44.0713 57.0055 44.8715 56.7673 45.5036 56.9227L45.4801 57.3151C45.8301 57.1575 46.2275 57.1407 46.5896 57.2682L46.4305 57.6516C46.4305 57.6516 47.1029 57.5085 47.5288 57.6516L47.5165 57.8427C47.5165 57.8427 48.8053 57.902 49.8207 58.3782C49.3285 58.583 48.8103 58.7192 48.2808 58.7829C47.8269 58.8421 47.5053 58.8544 47.5053 58.8544V59.0444C47.0749 59.1752 46.4069 59.021 46.4069 59.021L46.5616 59.4133C46.1947 59.5276 45.7979 59.498 45.4521 59.3306V59.7118C44.8188 59.8538 44.031 59.5922 44.031 59.5922L43.9357 59.9857C43.3507 60.0684 42.444 59.6045 42.444 59.6045L42.4193 60.0449C41.8519 60.0989 41.2841 59.9469 40.82 59.6168L40.7012 59.9969C40.1521 60.0919 39.2207 59.2714 39.2207 59.2714L39.1255 59.5564C38.0865 59.3429 37.6338 58.9975 37.6338 58.9975L37.5374 59.2468C37.06 58.9852 36.0345 58.6521 35.2959 58.4017C35.2552 58.5228 35.1892 58.6339 35.1022 58.7278C35.0153 58.8216 34.9094 58.896 34.7916 58.9461C34.7736 60.5401 34.6257 63.7831 33.7582 65.0373L33.19 64.645C33.8916 63.6311 34.0777 60.7391 34.1012 58.974C33.9606 58.9231 33.8354 58.8372 33.7373 58.7245C33.6393 58.6119 33.5716 58.4761 33.5408 58.3301C32.8011 58.5448 31.8227 58.8421 31.3453 59.0802L31.2612 58.8298C31.2612 58.8298 30.7961 59.1652 29.7572 59.3429L29.6619 59.0444C29.6619 59.0444 28.7071 59.8426 28.1579 59.723L28.0458 59.3429C27.5719 59.6584 27.0017 59.7973 26.4353 59.7353L26.423 59.2826C26.423 59.2826 25.504 59.723 24.9313 59.628L24.8371 59.239C24.8371 59.239 24.0369 59.4771 23.416 59.3105L23.4284 58.9293C23.0783 59.0883 22.68 59.1051 22.3177 58.9763L22.4847 58.5839C22.4847 58.5839 21.8123 58.727 21.3875 58.5839L21.3987 58.3927C21.3987 58.3927 20.0975 58.3335 19.0956 57.8573C19.5877 57.6523 20.1059 57.5161 20.6355 57.4526C21.0838 57.3934 21.411 57.3811 21.411 57.3811V57.191C21.8403 57.0602 22.5082 57.2145 22.5082 57.2145L22.3536 56.8221C22.7209 56.708 23.118 56.7375 23.4642 56.9048V56.5125C24.0963 56.3817 24.8719 56.631 24.8719 56.631L24.984 56.2498C25.5567 56.1671 26.4645 56.631 26.4645 56.631L26.5003 56.1838C27.0647 56.1339 27.6282 56.2887 28.0873 56.6198L28.2072 56.2386C28.7676 56.1436 29.6877 56.9641 29.6877 56.9641L29.7942 56.6667C30.8331 56.8814 31.287 57.2391 31.287 57.2391L31.3699 56.9887C31.8351 57.2391 32.8269 57.5722 33.5666 57.8103C33.5695 57.79 33.5736 57.7698 33.5789 57.75C32.6084 57.2044 31.0449 56.3459 30.2167 56.0866L30.3949 55.7512C30.3949 55.7512 29.5835 55.6204 28.3428 54.7518L28.558 54.3583C28.558 54.3583 26.7906 54.2041 26.349 53.5244L26.6236 53.037C25.8242 52.8783 25.1084 52.4388 24.6063 51.7984L25.0602 51.3345C25.0602 51.3345 23.6749 50.846 23.1863 50.1798L23.4967 49.6912C23.4967 49.6912 22.4578 49.12 21.9804 48.3342L22.3984 47.9653C21.8809 47.7726 21.4575 47.3888 21.216 46.8932L21.7764 46.6551C21.7764 46.6551 20.965 46.1197 20.6781 45.5484L20.8809 45.3696C20.8809 45.3696 19.6403 44.0002 19.0877 42.5123V42.5C20.6007 43.0824 21.9232 44.3568 21.9232 44.3568L22.1137 44.1656C22.6741 44.463 23.1885 45.2969 23.1885 45.2969L23.4385 44.7491C23.9247 44.9988 24.2965 45.4249 24.4774 45.9397L24.8708 45.5585C25.6351 46.0593 26.1719 47.1067 26.1719 47.1067L26.674 46.8094C27.3465 47.3091 27.7836 48.7019 27.7836 48.7019L28.261 48.2738C28.8874 48.7933 29.3065 49.5194 29.4423 50.3206L29.9444 50.059C30.6011 50.5118 30.7076 52.2858 30.7076 52.2858L31.1021 52.0835C31.937 53.3456 32.0334 54.1549 32.0334 54.1549L32.3797 53.9995C32.6173 54.81 33.4063 56.3571 33.9308 57.333C33.9891 57.294 34.0541 57.2659 34.1225 57.2503C33.7638 55.9759 33.1306 53.7849 32.6297 52.8336L33.0712 52.6782C33.0712 52.6782 32.4985 51.8811 32.1746 50.0948L32.6879 49.9405C32.6879 49.9405 31.3161 48.2973 31.519 47.3571L32.1746 47.166C31.6291 46.3497 31.3909 45.3672 31.5022 44.3926L32.2777 44.3803C32.2777 44.3803 31.5257 42.7851 31.6815 41.8092L32.3618 41.6538C32.3618 41.6538 31.9673 40.2844 32.2307 39.2135L32.9031 39.2369C32.6281 38.6327 32.598 37.9457 32.8191 37.3198L33.5005 37.606C33.5005 37.606 33.2618 36.4512 33.5005 35.7246L33.8367 35.7369C33.8367 35.7369 33.9488 33.5101 34.7557 31.7841C34.7557 31.7729 34.768 31.7729 34.768 31.7729C35.5436 33.5459 35.5795 35.7604 35.5795 35.7604H35.9157C36.1398 36.4993 35.8675 37.6417 35.8675 37.6417L36.5489 37.3802C36.7469 38.0086 36.6956 38.6888 36.4054 39.2805H37.0779C37.3166 40.3638 36.875 41.7208 36.875 41.7208L37.5475 41.8874C37.6898 42.8756 36.8907 44.4473 36.8907 44.4473L37.6539 44.4954C37.7436 45.4668 37.4812 46.4381 36.9143 47.2331L37.5587 47.4354C37.738 48.3878 36.3057 49.983 36.3057 49.983L36.819 50.1619C36.4491 51.9505 35.8406 52.7218 35.8406 52.7218L36.281 52.876C35.7689 53.8173 35.0762 55.948 34.6817 57.2223C34.7754 57.2472 34.8644 57.2872 34.9451 57.3408C35.4943 56.3772 36.3292 54.8647 36.5915 54.0554L36.9378 54.222C36.9378 54.222 37.07 53.4126 37.9285 52.174L38.323 52.3887C38.323 52.3887 38.4071 51.4273 38.7265 50.7465C38.7658 50.6652 38.8215 50.5929 38.8899 50.5339C38.9584 50.4749 39.0383 50.4306 39.1247 50.4037C39.211 50.3768 39.302 50.3678 39.392 50.3773C39.482 50.3869 39.569 50.4148 39.6477 50.4592C39.8097 49.663 40.2497 48.9499 40.8895 48.4471L41.3546 48.8998C41.3546 48.8998 41.8444 47.5192 42.5124 47.043L42.9932 47.3448C42.9932 47.3448 43.5659 46.3086 44.3537 45.8447L44.7236 46.2493C44.9183 45.7382 45.3016 45.3206 45.795 45.0823L46.0326 45.6412C46.0326 45.6412 46.5706 44.8196 47.1433 44.5345L47.3226 44.7357C47.3226 44.7357 48.6955 43.4983 50.1872 42.9628H50.1995C49.6145 44.4507 48.3369 45.772 48.3369 45.772L48.533 45.9754Z" fill="#10A882"/>
</svg>
