<svg xmlns="http://www.w3.org/2000/svg" style="display: none">
  <symbol id="mobile-logo" viewBox="0 0 234 61">
    <path d="M112.697 53.7023C107.472 55.5922 104.595 56.2014 101.34 56.2014C92.5566 56.2014 85.9696 52.7123 81.806 48.6301C76.8835 43.7091 74.1592 36.8182 74.1592 30.2312C74.1592 23.038 77.2644 16.2242 81.8075 11.6055C86.2734 7.06251 93.0131 3.73047 100.887 3.73047C103.31 3.73047 107.247 4.1099 112.699 6.30509V21.9782C108.458 16.7548 103.461 16.4539 101.266 16.4539C97.4864 16.4539 94.6021 17.5892 92.1801 19.7859C89.0748 22.6629 87.7883 26.5997 87.7883 30.1585C87.7883 33.6476 89.2275 37.503 91.8763 40.002C94.0729 42.046 97.5561 43.491 101.266 43.491C103.235 43.491 108.08 43.2643 112.699 38.1921L112.697 53.7023Z" />
    <path d="M156.089 15.694H140.491V24.0997H155.256V35.2298H140.491V43.9364H156.089V55.0664H127.393V4.56543H156.089V15.694Z" />
    <path d="M183.898 4.56543V55.0664H170.8V4.56543H183.898Z" />
    <path d="M233.869 53.7023C228.646 55.5922 225.769 56.2014 222.512 56.2014C213.728 56.2014 207.141 52.7123 202.978 48.6301C198.057 43.7091 195.331 36.8182 195.331 30.2312C195.331 23.038 198.435 16.2242 202.978 11.6055C207.445 7.06251 214.184 3.73047 222.059 3.73047C224.481 3.73047 228.417 4.1099 233.869 6.30509V21.9782C229.63 16.7548 224.632 16.4539 222.437 16.4539C218.657 16.4539 215.774 17.5892 213.351 19.7859C210.247 22.6629 208.959 26.5997 208.959 30.1585C208.959 33.6476 210.398 37.503 213.048 40.002C215.243 42.046 218.727 43.491 222.437 43.491C224.405 43.491 229.25 43.2643 233.869 38.1921V53.7023Z" />
    <path d="M30.4126 60.672C30.3705 59.7561 30.2396 58.8577 30.2847 57.92C30.4461 54.5022 30.5406 51.019 30.5406 47.5983L30.8168 46.3306C30.7732 47.2944 30.1757 48.1027 29.7861 48.9648C29.7352 49.0753 29.616 49.571 29.5171 49.6146C29.2496 49.7324 29.2947 49.2977 29.0272 49.3675C28.7597 49.4373 28.1549 50.4491 27.9834 50.6977C27.838 50.9056 26.8887 52.1078 26.7942 51.458C26.5441 51.57 26.406 51.9508 26.2127 52.1558C25.9975 52.387 25.7838 52.5789 25.5934 52.8246C25.2141 53.3444 24.7982 53.8365 24.349 54.2972C23.657 54.9572 24.0291 53.8218 24.1672 53.4133C24.351 52.8768 24.5651 52.3512 24.8084 51.8389C25.1016 51.2033 25.5159 50.631 26.0281 50.154C25.9292 50.1903 25.6748 50.2238 25.6312 50.0609C25.5876 49.8981 25.9336 49.7237 26.0208 49.6364C26.2432 49.4111 26.6023 49.1044 26.7579 48.8558C26.6978 48.8416 26.6386 48.8241 26.5805 48.8034C26.595 48.328 27.8089 47.45 28.1695 47.1781C28.53 46.9063 29.4037 46.0485 29.7555 46.1329L29.645 46.0151C29.1551 46.3553 28.6652 46.6082 28.184 46.9688C27.9034 47.1781 27.6025 47.3409 27.3117 47.5503C27.21 47.6244 26.2389 48.328 26.5849 47.8003C25.8347 48.1274 25.1122 49.2817 24.2356 49.2396C24.2036 49.0244 24.442 48.8834 24.5176 48.6915C24.2777 48.6057 23.8198 48.9532 23.5712 49.0564C23.1927 49.2187 22.8043 49.3566 22.4082 49.4693C21.9386 49.5972 20.5822 49.6844 21.4763 48.943C20.8207 49.2337 20.1432 49.3021 19.4687 49.4504C19.1648 49.5172 18.8523 49.683 18.5368 49.5579C18.0367 49.3588 18.4525 48.9255 18.8275 48.7322V48.6929C17.8637 48.8645 16.9958 49.5245 15.9462 49.2744C16.0218 48.895 15.2891 49.0026 15.0245 49.0026C14.6364 48.9964 14.2482 49.01 13.8615 49.0433C13.248 49.1073 12.5327 49.4474 11.9251 49.3966L12.0355 49.5143C11.7099 49.1378 13.2145 48.1783 13.4893 48.0286C14.0708 47.7218 14.7119 47.5837 15.3123 47.4209C14.9692 46.96 17.1295 46.3262 17.4247 46.1794C17.3589 46.1654 17.297 46.1368 17.2437 46.0958C17.1904 46.0548 17.1469 46.0024 17.1165 45.9424C17.8433 45.5586 18.5702 45.6662 19.3582 45.6124C19.2129 45.5533 19.092 45.4467 19.0151 45.31C19.9208 44.8913 20.8352 45.2359 21.7685 45.1385C20.905 44.6718 22.5914 44.6093 22.8777 44.6747C23.295 44.7692 23.7747 44.8361 24.1542 44.9902H24.2268C23.8009 44.6704 24.49 44.6268 24.663 44.6355C25.0208 44.6406 25.3767 44.6894 25.7228 44.7808C26.092 44.8913 26.4424 45.0803 26.8204 45.1457C27.1983 45.2112 26.9745 45.0716 27.2405 44.9829C27.3961 44.932 29.2307 44.8739 29.5215 45.0076C29.5215 45.0076 25.9059 43.8839 26.2083 43.4085L26.14 43.4361C25.7039 43.4099 25.3114 43.2777 24.8898 43.1846C24.6746 43.1352 23.5814 42.9099 24.112 42.5231C23.5135 42.507 22.9189 42.4221 22.3398 42.2702C21.8296 42.1335 21.0489 41.6596 21.706 41.238L21.6493 41.302C21.1856 41.3776 20.2072 41.0505 19.726 40.8746C19.5675 40.8179 18.8915 40.6056 18.8871 40.3745C18.8871 40.2625 19.3524 39.998 19.4527 39.8918C18.7667 39.8351 18.095 39.6641 17.4654 39.3859C17.1121 39.2231 16.0363 38.3581 16.9711 38.1546L16.958 38.1168C16.6891 38.3596 15.7339 37.9714 15.4141 37.8028C14.5825 37.3434 15.3298 37.3157 15.5871 36.7691C15.3807 36.5976 14.962 36.6499 14.6988 36.5743C14.3329 36.4654 13.9772 36.3244 13.6361 36.1527C13.3934 36.0306 12.9441 35.7588 12.9965 35.4258C13.0343 35.1889 13.3701 35.029 13.4937 34.9897L13.5998 35.0726C13.091 34.7818 12.4179 34.7818 11.8742 34.5143C11.6837 34.4227 11.1735 34.257 11.1327 33.991C11.092 33.7249 11.4715 33.6246 11.6328 33.4255C11.0949 33.2074 10.4945 33.2423 9.98718 32.8905C9.81563 32.7727 9.52197 32.5445 9.55105 32.309C9.57722 32.104 9.82726 32.0008 9.8985 31.8394L9.83017 31.8656C9.34854 31.7634 8.88163 31.6013 8.44037 31.3829C8.24702 31.2768 8.00424 31.0791 8.02459 30.8145C8.04494 30.5499 8.26737 30.5092 8.36623 30.3071C8.04204 29.9873 7.42418 30.0731 7.06656 29.7881C6.57518 29.3985 7.19013 29.1601 7.46925 28.9406C7.11308 28.6789 4.78414 27.6322 6.14051 27.1568L6.17394 27.1437C5.98641 26.9315 3.59496 25.7059 4.65766 25.1869C4.45995 24.9965 4.18519 24.8787 3.95985 24.7028C3.69381 24.4979 3.7287 24.3961 3.6124 24.1213C3.3013 23.4163 2.27784 22.8362 1.7225 22.2634C1.40413 21.9305 -0.0220199 20.7675 0.206222 20.3037L0.164062 20.3401C0.687419 20.0581 1.90858 20.987 2.36071 21.2545C3.29693 21.7968 4.15466 22.4539 5.07053 23.0194C5.40345 22.6647 6.3891 23.7012 6.68567 23.8916C7.14361 23.2534 8.39094 24.1301 8.55958 24.7101L8.70495 24.6941C9.27774 23.6023 10.8856 25.7234 11.3944 26.3064C11.5398 25.9865 11.5805 25.5795 12.0021 25.5882C12.3234 25.5955 12.5967 25.9807 12.793 26.2104C13.1884 26.6698 13.719 27.3153 13.9487 27.7877L13.9138 27.8023C14.2496 27.6845 14.097 26.7396 14.5796 26.7745C15.0041 26.8064 15.2585 27.8052 15.4955 28.0829C15.827 27.3371 16.4114 29.3491 16.5277 29.5366C16.9638 29.3912 16.6193 28.5568 17.1615 29.1572C17.4147 29.4692 17.6463 29.798 17.855 30.1414L17.8768 30.092C18.2097 29.6108 18.5353 31.1736 18.5659 31.3597C18.5353 30.9555 18.7796 30.8479 19.034 31.0398C19.2346 31.1925 19.3698 31.5472 19.4905 31.7667C19.7274 32.1898 20.2726 32.889 20.3148 33.2859L20.3496 33.2714C20.5822 32.3715 21.1449 33.3746 21.3673 33.7322C21.6755 34.2367 21.9488 34.7789 22.2395 35.2834C22.5201 34.5856 23.3764 35.971 23.5363 36.2472C23.9027 35.8474 24.3446 37.1849 24.4464 37.435C24.4464 37.3855 24.4638 37.3245 24.4682 37.2721C25.0221 37.0875 25.4698 38.4192 25.6472 38.8102C26.0513 38.6023 26.3857 39.8598 26.4875 40.1622L26.5005 40.1986C26.5311 40.1535 26.6997 40.1099 26.7419 40.0895C27.0108 40.2538 27.1431 40.7975 28.0023 41.7439C28.0386 40.7379 30.0666 43.4681 30.4359 44.1034C30.4359 44.1034 28.9923 40.9153 29.898 40.767C29.5215 40.0895 28.78 39.0515 28.9516 38.5384C29.001 38.5529 29.0563 38.5558 29.1071 38.5704C29.1493 38.3988 28.1985 36.5743 28.9196 36.961L28.8833 36.8825C28.6521 36.301 28.3018 35.782 28.0343 35.2209C27.8307 34.7935 27.3932 33.847 28.1884 34.0041C27.9499 33.4226 27.6156 32.8876 27.3583 32.3177C27.2696 32.12 27.0384 31.6766 27.0922 31.4454C27.178 31.0791 27.415 31.2637 27.6737 31.3233C27.6737 30.7026 27.1867 29.8623 26.9352 29.3098C26.6445 28.6789 26.5194 27.8197 27.3713 28.1803H27.2987C26.8625 27.5653 26.4438 27.0521 26.1356 26.3296C26.0542 26.1348 25.7649 25.5955 25.9394 25.4312C26.0237 25.3512 26.5849 25.4152 26.7404 25.3483C26.707 25.0081 26.7695 24.697 26.6168 24.399C26.4402 24.0622 26.3031 23.7061 26.2083 23.3378C26.063 22.7562 26.2287 22.1878 26.8567 22.5527V22.6312C26.7549 22.3812 25.5192 21.1353 26.1502 20.939C25.9132 20.7064 25.6908 19.8618 25.8056 19.5245C25.9612 19.068 26.4715 19.2338 26.784 19.2468L26.7113 19.2076C26.4206 18.5519 26.3842 17.8658 26.2549 17.1607C26.2127 16.9368 26.0353 16.2986 26.1545 16.0776C26.345 15.7258 26.8204 15.973 27.0617 16.1256C26.9047 15.7709 26.8843 15.3987 26.7957 14.9975C26.7637 14.8521 26.6227 14.5192 26.7709 14.416C26.848 14.3622 27.1009 14.5148 27.1649 14.4872L27.1286 14.448C27.1024 14.4741 27.162 14.5483 27.0922 14.4945C26.9468 14.0583 26.6706 13.4623 26.6561 12.9927C26.6212 12.0332 27.2928 12.702 27.7115 12.6715C27.729 12.1423 27.5356 11.6117 27.5327 11.0621C27.5327 10.7423 27.4295 9.80753 27.7799 9.65197C28.2509 9.44118 28.9269 10.5402 28.828 9.46008C28.7763 8.96028 28.7632 8.45724 28.7888 7.95542C28.8237 7.40735 29.0795 7.09915 29.4837 7.56145V7.41462C29.3157 6.94652 29.3029 6.43676 29.4473 5.96085C29.7177 4.95194 29.8195 3.86306 29.9605 2.82362C30.0259 2.33515 30.0724 1.84669 30.1233 1.35677C30.1626 0.975879 30.6191 0.219919 30.9607 0.16613C31.3023 0.11234 31.6992 1.12271 31.7399 1.5036C31.7908 1.99352 31.8373 2.48053 31.9027 2.969C32.0481 4.0099 32.1455 5.09731 32.4145 6.10768C32.5606 6.58335 32.5479 7.09369 32.3781 7.56145V7.72137C32.7881 7.25762 33.0381 7.56727 33.0745 8.11389C33.0993 8.61332 33.0856 9.11392 33.0338 9.61127C32.9349 10.6914 33.6153 9.59237 34.0834 9.80317C34.4323 9.95872 34.3305 10.8935 34.3291 11.2133C34.3291 11.7628 34.1343 12.2949 34.1503 12.8226C34.569 12.8604 35.242 12.1844 35.2057 13.1439C35.1883 13.6149 34.915 14.2023 34.7696 14.6471C34.6998 14.7009 34.7594 14.6268 34.7347 14.5991L34.6983 14.6399C34.7609 14.6675 35.0153 14.5134 35.0923 14.5672C35.2377 14.6718 35.0923 15.0033 35.0676 15.1487C34.9713 15.5372 34.8364 15.9151 34.6649 16.2768C34.9077 16.1314 35.3831 15.877 35.5735 16.2288C35.6927 16.4513 35.5139 17.088 35.4732 17.3119C35.3438 18.017 35.4369 18.7031 35.1519 19.3602L35.0778 19.3995C35.3918 19.385 35.9021 19.2192 36.0576 19.6772C36.171 20.013 35.9486 20.8591 35.7116 21.0917C36.344 21.2879 35.3787 22.5324 35.2755 22.7839V22.7039C35.905 22.339 36.0692 22.9089 35.9253 23.4889C35.8323 23.864 35.9617 24.2158 35.7872 24.5502C35.6346 24.841 35.2915 25.1593 35.258 25.4995C35.4136 25.5678 35.9748 25.4995 36.0591 25.5824C36.2335 25.7481 35.9428 26.286 35.8614 26.4823C35.5619 27.2091 35.1345 27.718 34.7071 28.3315H34.6344C35.479 27.9724 35.3511 28.8315 35.0632 29.4625C34.8117 30.0135 34.3247 30.8537 34.3247 31.476C34.582 31.4163 34.8205 31.2303 34.9062 31.5966C34.96 31.822 34.7289 32.2668 34.6402 32.4689C34.3814 33.0402 34.0485 33.5752 33.8101 34.1553C34.6053 33.9982 34.1677 34.9446 33.9642 35.3735C33.6981 35.9332 33.3463 36.4551 33.1152 37.0337L33.0788 37.1122C33.8057 36.727 32.8491 38.55 32.8913 38.7215C32.9422 38.7085 32.9974 38.7041 33.0469 38.6896C33.2184 39.2042 32.4755 40.2407 32.1005 40.9182C33.0062 41.0636 31.5626 44.2546 31.5626 44.2546C31.9318 43.6193 33.9598 40.8906 33.9962 41.8966C34.8539 40.9487 34.9862 40.4065 35.2566 40.2407C35.2987 40.2611 35.4674 40.3047 35.4979 40.3512L35.5095 40.3134C35.6128 40.011 35.9457 38.7535 36.3513 38.9629C36.5286 38.5703 36.9764 37.2401 37.5288 37.4233C37.5288 37.4757 37.5492 37.5367 37.5521 37.5861C37.6539 37.3361 38.0958 35.9986 38.4607 36.3999C38.6221 36.1222 39.4783 34.7368 39.7589 35.4346C40.0598 34.9301 40.3244 34.3879 40.6312 33.8848C40.8507 33.5258 41.4118 32.5241 41.6488 33.424L41.6822 33.4371C41.7259 33.0402 42.271 32.3409 42.508 31.9179C42.6286 31.7027 42.7638 31.348 42.9645 31.191C43.2189 30.9991 43.4617 31.1082 43.4326 31.5123C43.4631 31.3248 43.7888 29.7678 44.1202 30.2432L44.142 30.294C44.3515 29.9504 44.5836 29.6211 44.8369 29.3084C45.3792 28.708 45.0346 29.5424 45.4708 29.6878C45.5871 29.4988 46.1715 27.4854 46.5029 28.2341C46.7385 27.9433 46.9943 26.9504 47.4188 26.9257C47.9015 26.8893 47.7474 27.8357 48.0846 27.952L48.0498 27.9389C48.2794 27.465 48.8101 26.8195 49.2055 26.3601C49.4018 26.1319 49.6751 25.7466 49.9963 25.7379C50.4165 25.7278 50.4572 26.1377 50.6026 26.4561C51.1114 25.8746 52.7207 23.7535 53.2935 24.8439L53.4389 24.8613C53.6075 24.2798 54.8548 23.4075 55.3113 24.0428C55.6093 23.8495 56.595 22.8144 56.9279 23.1706C57.8423 22.6065 58.7015 21.948 59.6377 21.4057C60.0971 21.1397 61.311 20.2092 61.8344 20.4927L61.7661 20.4651C61.9958 20.9289 60.5682 22.0933 60.2498 22.4262C59.7003 22.9976 58.6768 23.5776 58.3599 24.2842C58.2421 24.5502 58.277 24.652 58.0124 24.8657C57.7871 25.0401 57.5109 25.1564 57.3146 25.3498C58.3773 25.8688 55.9859 27.0943 55.7969 27.3051L55.8318 27.3196C57.1881 27.795 54.8592 28.8417 54.503 29.1034C54.7822 29.3229 55.3971 29.5613 54.9057 29.9495C54.5466 30.2402 53.9302 30.1487 53.6061 30.4685C53.7049 30.672 53.9244 30.7273 53.9477 30.9759C53.971 31.2245 53.7253 31.4396 53.5319 31.5443C53.0906 31.7629 52.6237 31.9255 52.1421 32.0284L52.0738 32.0008C52.145 32.1621 52.3951 32.2654 52.4212 32.4703C52.4518 32.7131 52.1581 32.9414 51.9851 33.0518C51.4777 33.4022 50.8773 33.3688 50.3394 33.5854C50.5008 33.786 50.8817 33.8761 50.8395 34.1509C50.7974 34.4257 50.2871 34.587 50.0981 34.6742C49.5544 34.9374 48.8799 34.9461 48.3725 35.2339L48.4786 35.1496C48.6007 35.1845 48.938 35.3444 48.9758 35.5858C49.0267 35.9172 48.5789 36.1891 48.3361 36.3126C47.995 36.4838 47.6394 36.6244 47.2734 36.7328C47.0089 36.8084 46.5902 36.756 46.3852 36.929C46.6425 37.4742 47.3897 37.5018 46.5582 37.9612C46.2384 38.1371 45.2832 38.518 45.0128 38.2767L45.0012 38.313C45.936 38.5166 44.8558 39.3815 44.5069 39.5444C43.8771 39.8223 43.2056 39.9938 42.5196 40.0517C42.6185 40.1564 43.088 40.4225 43.0851 40.5329C43.0851 40.7641 42.4048 40.9763 42.2463 41.0345C41.7637 41.2089 40.7925 41.5375 40.323 41.4619L40.2663 41.3979C40.9234 41.8195 40.1427 42.2934 39.6324 42.4301C39.0534 42.582 38.4587 42.6669 37.8603 42.6831C38.3851 43.0683 37.2977 43.2951 37.0811 43.3431C36.6723 43.4606 36.2547 43.5447 35.8323 43.5946L35.7625 43.5684C36.0663 44.0452 32.4508 45.1675 32.4508 45.1675C32.7416 45.0338 34.5748 45.092 34.7318 45.1443C34.9978 45.2315 34.7623 45.3725 35.1519 45.3057C35.5415 45.2388 35.8788 45.0513 36.2495 44.9422C36.5957 44.8515 36.9515 44.8027 37.3093 44.7968C37.4823 44.7881 38.1714 44.8317 37.7454 45.1516H37.8181C38.1976 44.9975 38.6759 44.932 39.0945 44.8361C39.3853 44.7721 41.0658 44.8361 40.2038 45.3013C41.1371 45.3987 42.0515 45.0527 42.9572 45.4728C42.8802 45.6091 42.7593 45.7152 42.6141 45.7738C43.3977 45.829 44.126 45.72 44.8558 46.1038C44.8257 46.164 44.7823 46.2165 44.7289 46.2576C44.6755 46.2986 44.6135 46.327 44.5476 46.3407C44.8384 46.4861 47.003 47.1229 46.6585 47.5837C47.2604 47.7451 47.9058 47.8846 48.483 48.1899C48.7635 48.3353 50.2697 49.2992 49.944 49.6771L50.0545 49.5579C49.4454 49.6103 48.7316 49.2672 48.1181 49.2047C47.7313 49.1719 47.3431 49.1588 46.9551 49.1654C46.689 49.1654 45.9578 49.0564 46.0334 49.4373C44.9838 49.6815 44.1144 49.0215 43.152 48.8558V48.895C43.5198 49.0884 43.937 49.5216 43.4428 49.7208C43.1258 49.8472 42.8147 49.68 42.5109 49.6132C41.8363 49.4678 41.1589 49.3908 40.5032 49.1073C41.3959 49.8487 40.0409 49.76 39.5699 49.6321C39.1736 49.5206 38.7851 49.3832 38.4069 49.2207C38.1583 49.116 37.7004 48.7685 37.459 48.8558C37.5346 49.0477 37.7745 49.1872 37.7498 49.4038C36.8775 49.4445 36.1507 48.2902 35.4005 47.9646C35.7509 48.4923 34.7798 47.7887 34.6736 47.7131C34.3945 47.5052 34.0921 47.3438 33.8014 47.1316C33.3216 46.7725 32.8317 46.5181 32.3476 46.1794L32.2371 46.2971C32.5875 46.2128 33.4655 47.072 33.8232 47.3409C34.1808 47.6099 35.3976 48.4909 35.4121 48.9662C35.354 48.9868 35.2948 49.0042 35.2348 49.0186C35.3918 49.2672 35.7494 49.5754 35.9704 49.7993C36.0591 49.8879 36.4065 50.0595 36.3615 50.2238C36.3164 50.388 36.062 50.3546 35.9631 50.3183C36.4761 50.7946 36.8905 51.3671 37.1828 52.0032C37.4277 52.5149 37.6423 53.0406 37.8254 53.5776C37.9635 53.9861 38.3342 55.1201 37.6422 54.46C37.1938 53.9986 36.778 53.5065 36.3978 52.9874C36.2088 52.7417 35.9951 52.5512 35.7799 52.3201C35.5895 52.1137 35.4499 51.7386 35.1984 51.6208C35.1039 52.2721 34.1546 51.0699 34.0078 50.862C33.8333 50.6134 33.2402 49.6015 32.9654 49.5303C32.6907 49.4591 32.7416 49.8952 32.4741 49.7775C32.3767 49.7353 32.2575 49.2396 32.2066 49.1276C31.817 48.2655 31.2195 47.4587 31.1759 46.4934L31.4521 47.7625C31.4521 51.1803 31.5466 54.6636 31.7079 58.0843C31.7515 59.022 31.6207 59.9219 31.58 60.8363L30.4126 60.672Z" />
  </symbol>

  <symbol id="primary-logo" viewBox="0 0 194 105">
    <path d="M82.3992 103.267C80.7316 103.871 79.8139 104.064 78.7749 104.064C75.9762 104.064 73.8772 102.952 72.542 101.648C70.9965 100.082 70.1214 97.9754 70.1025 95.7749C70.1023 94.6579 70.3233 93.5519 70.7527 92.5207C71.1821 91.4896 71.8114 90.5538 72.6042 89.7673C73.3971 88.9808 74.3378 88.3592 75.3721 87.9385C76.4064 87.5177 77.5138 87.306 78.6303 87.3157C79.4034 87.3157 80.6593 87.4324 82.3992 88.1324V93.1418C81.0465 91.4736 79.4512 91.3767 78.7516 91.3767C77.5435 91.3767 76.6246 91.7396 75.8526 92.4407C75.4044 92.8667 75.0488 93.3806 74.808 93.9502C74.5673 94.5199 74.4465 95.1331 74.4533 95.7516C74.4533 96.8633 74.9127 98.0953 75.7582 98.8933C76.4578 99.5454 77.5691 100.005 78.7539 100.005C79.3813 100.005 80.9275 99.9327 82.4015 98.3135L82.3992 103.267Z"/>
    <path d="M99.8166 101.671C98.1736 103.242 95.8519 104.064 93.4625 104.064C91.0732 104.064 88.7526 103.247 87.1095 101.671C86.3049 100.889 85.6656 99.9539 85.2299 98.9201C84.7942 97.8863 84.5708 96.7754 84.5733 95.6534C84.5733 93.5022 85.3895 91.2308 87.1095 89.6115C88.7526 88.0412 91.0743 87.2188 93.4625 87.2188C95.8507 87.2188 98.1736 88.0354 99.8166 89.6115C101.532 91.2308 102.353 93.5022 102.353 95.6534C102.355 96.7754 102.132 97.8863 101.696 98.9201C101.261 99.9539 100.621 100.889 99.8166 101.671ZM90.2021 92.5584C89.3322 93.4042 88.9194 94.5895 88.9194 95.7246C88.9168 96.2854 89.0293 96.8407 89.2499 97.3562C89.4706 97.8718 89.7946 98.3365 90.2021 98.7216C90.635 99.1401 91.1464 99.4689 91.7067 99.6891C92.267 99.9093 92.8653 100.017 93.4672 100.005C94.8933 100.005 95.9557 99.4974 96.7043 98.7485C97.5272 97.9277 97.9957 96.817 98.0092 95.6546C98.0069 95.0774 97.89 94.5065 97.6652 93.9749C97.4404 93.4434 97.1121 92.9619 96.6996 92.5584C95.8181 91.7421 94.6637 91.2844 93.4625 91.2751C92.3034 91.2751 91.072 91.6904 90.2021 92.5584Z"/>
    <path d="M113.996 100.994H108.15L107.063 103.7H102.643L108.823 87.5811H113.391L119.454 103.7H114.987L113.996 100.994ZM112.885 97.8076L111.074 92.587L109.309 97.8076H112.885Z"/>
    <path d="M125.355 87.5811V100.148H130.38V103.7H121.176V87.5811H125.355Z"/>
    <path d="M136.394 87.5811V103.7H132.215V87.5811H136.394Z"/>
    <path d="M145.746 91.1334V103.7H141.566V91.1334H138.136V87.5811H149.175V91.1334H145.746Z"/>
    <path d="M155.123 87.5811V103.7H150.939V87.5811H155.123Z"/>
    <path d="M172.878 101.671C171.235 103.242 168.913 104.064 166.524 104.064C164.135 104.064 161.814 103.247 160.171 101.671C159.366 100.889 158.727 99.9539 158.291 98.9201C157.856 97.8863 157.632 96.7754 157.635 95.6534C157.635 93.5022 158.451 91.2308 160.171 89.6115C161.814 88.0412 164.136 87.2188 166.524 87.2188C168.912 87.2188 171.235 88.0354 172.878 89.6115C174.594 91.2308 175.414 93.5022 175.414 95.6534C175.417 96.7754 175.194 97.8863 174.758 98.9201C174.322 99.9539 173.683 100.889 172.878 101.671ZM163.264 92.5584C162.394 93.4042 161.981 94.5895 161.981 95.7246C161.978 96.2854 162.091 96.8407 162.311 97.3562C162.532 97.8718 162.856 98.3365 163.264 98.7216C163.697 99.1401 164.208 99.4689 164.768 99.6891C165.329 99.9093 165.927 100.017 166.529 100.005C167.955 100.005 169.017 99.4974 169.766 98.7485C170.589 97.9282 171.058 96.8171 171.071 95.6546C171.069 95.0774 170.952 94.5063 170.727 93.9748C170.502 93.4432 170.174 92.9617 169.761 92.5584C168.88 91.7421 167.725 91.2844 166.524 91.2751C165.365 91.2751 164.134 91.6904 163.264 92.5584Z"/>
    <path d="M177.877 103.7V87.5811H182.056L189.762 97.4413V87.5811H193.941V103.7H189.762L182.059 93.8411V103.701L177.877 103.7Z"/>
    <path d="M75.5541 58.4717V79.4977H70.1025V58.4717H75.5541Z"/>
    <path d="M85.4162 58.4717V74.8638H91.9709V79.4977H79.9658V58.4717H85.4162Z"/>
    <path d="M100.068 58.4717V74.8638H106.627V79.4977H94.6162V58.4717H100.068Z"/>
    <path d="M114.782 58.4717V79.4977H109.332V58.4717H114.782Z"/>
    <path d="M118.878 79.4977V58.4717H124.329L134.38 71.3337V58.4717H139.832V79.4977H134.38L124.329 66.6368V79.4977H118.878Z"/>
    <path d="M162.865 76.8492C160.723 78.899 157.698 79.9699 154.579 79.9699C151.46 79.9699 148.435 78.899 146.292 76.8492C144.055 74.7061 142.983 71.7744 142.983 69.0002C142.983 66.1945 144.055 63.2313 146.292 61.1197C148.435 59.0711 151.46 57.999 154.579 57.999C157.698 57.999 160.723 59.0711 162.865 61.1197C165.103 63.2313 166.175 66.1945 166.175 69.0002C166.175 71.7744 165.103 74.7085 162.865 76.8492ZM150.325 64.9661C149.191 66.0685 148.655 67.6131 148.655 69.0947C148.652 69.8259 148.798 70.5502 149.085 71.2226C149.372 71.895 149.794 72.5013 150.325 73.0041C151.334 73.9817 152.752 74.6747 154.579 74.6747C156.438 74.6747 157.824 74.0132 158.802 73.0356C159.874 71.9647 160.484 70.516 160.502 69.0002C160.499 68.2486 160.348 67.5049 160.056 66.8123C159.764 66.1198 159.337 65.4922 158.8 64.9661C157.65 63.9028 156.144 63.3068 154.578 63.2943C153.067 63.2943 151.46 63.8309 150.325 64.9661Z"/>
    <path d="M175.105 58.4717V79.4977H169.653V58.4717H175.105Z"/>
    <path d="M180.773 73.1927C181.939 74.2963 183.703 75.3357 185.594 75.3357C186.697 75.3357 187.358 74.9858 187.705 74.6113C188.05 74.2575 188.243 73.7819 188.241 73.2872C188.24 73.0459 188.185 72.8078 188.081 72.5899C187.978 72.372 187.828 72.1795 187.642 72.026C187.106 71.5594 186.287 71.3331 184.932 70.9236L183.514 70.4814C182.632 70.198 181.34 69.7255 180.489 68.7794C179.418 67.6127 179.292 66.1311 179.292 65.0602C179.292 62.475 180.3 60.8989 181.214 59.9842C182.286 58.9133 184.05 58.001 186.601 58.001C188.682 58.001 191.107 58.6624 193.093 59.7031L190.918 63.9589C189.286 62.6663 188.051 62.5403 187.327 62.5403C186.792 62.5403 186.066 62.6663 185.531 63.1703C185.216 63.4864 184.995 63.8329 184.995 64.3054C184.995 64.6834 185.058 64.968 185.279 65.2515C185.436 65.4405 185.814 65.8185 187.106 66.1965L188.776 66.7016C190.1 67.1111 191.486 67.5836 192.588 68.7817C193.66 69.9168 193.943 71.0834 193.943 72.5335C193.943 74.4561 193.477 76.3157 191.961 77.8288C190.165 79.6254 187.996 79.9719 185.754 79.9719C184.43 79.9719 183.17 79.8459 181.626 79.2789C180.5 78.8548 179.432 78.2937 178.443 77.6083L180.773 73.1927Z"/>
    <path d="M83.8416 30.5873H76.3785V34.6133H83.4475V39.9436H76.3739V44.1142H83.837V49.4457H70.1025V25.2559H83.8416V30.5873Z"/>
    <path d="M114.365 49.8805L108.601 50.7508L106.571 48.4304C104.432 49.5912 102.475 49.989 100.227 49.989C95.1883 49.989 92.034 48.0315 90.1496 46.0004C87.8302 43.5341 86.7422 40.2338 86.7422 37.2601C86.7469 35.6059 87.0791 33.9691 87.7196 32.4441C88.36 30.9192 89.2961 29.5362 90.4737 28.3751C92.9027 26.0174 96.3462 24.7119 100.044 24.7119C103.487 24.7119 107.113 25.9089 109.65 28.3389C111.717 30.3327 113.382 33.4884 113.382 37.4386C113.404 39.1098 113.07 40.7667 112.402 42.2987C111.893 43.5365 111.139 44.6589 110.187 45.5991L114.365 49.8805ZM104.033 39.0368L105.701 40.8509C106.424 39.8059 106.816 38.5672 106.825 37.2962C106.825 35.81 106.063 33.9959 104.867 32.7989C103.562 31.4935 101.602 30.8052 100.046 30.8052C99.1572 30.8047 98.2768 30.9807 97.4562 31.323C96.6355 31.6652 95.8908 32.1669 95.2653 32.7989C94.0189 34.111 93.3192 35.849 93.3085 37.659C93.3033 38.4733 93.4605 39.2805 93.7708 40.0333C94.0812 40.7861 94.5385 41.4694 95.116 42.0432C96.2821 43.1678 98.1246 43.8935 100.014 43.8935C100.672 43.8931 101.327 43.8088 101.963 43.6426L98.1211 39.7986L104.033 39.0368Z"/>
    <path d="M123.101 25.2559V39.5819C123.101 40.5969 123.138 42.1567 124.334 43.3151C125.058 44.0034 126.218 44.4747 127.306 44.4747C128.394 44.4747 129.522 44.0396 130.206 43.4248C131.656 42.1555 131.62 40.3787 131.62 39.036V25.2559H137.891V39.1468C137.891 41.6854 137.783 44.3324 135.172 46.9795C133.142 49.0467 130.604 49.9893 127.197 49.9893C123.391 49.9893 120.667 48.6839 119.186 47.0891C117.087 44.8037 116.83 41.7227 116.83 39.1468V25.2559H123.101Z"/>
    <path d="M149.091 25.2559V49.4457H142.821V25.2559H149.091Z"/>
    <path d="M163.482 30.5873V49.4457H157.211V30.5873H152.063V25.2559H168.63V30.5873H163.482Z"/>
    <path d="M178.61 37.8437L169.873 25.2559H177.377L181.945 31.8566L186.33 25.2559H193.943L184.917 37.8437V49.4492H178.61V37.8437Z"/>
    <path d="M82.6545 16.6502C80.9532 17.2674 80.0156 17.4669 78.9556 17.4669C76.0952 17.4669 73.9495 16.3329 72.5933 15.0006C71.015 13.4026 70.1214 11.2519 70.1025 9.00538C70.1025 7.86527 70.3282 6.73645 70.7666 5.68407C71.205 4.6317 71.8474 3.67662 72.6567 2.87398C73.4661 2.07133 74.4263 1.43702 75.482 1.00766C76.5377 0.578295 77.668 0.362389 78.8075 0.372403C79.597 0.372403 80.8797 0.496065 82.6557 1.2112V6.31399C81.275 4.61189 79.6471 4.51273 78.9323 4.51273C77.6997 4.51273 76.7622 4.88255 75.9727 5.59885C75.5146 6.03402 75.1511 6.55911 74.9051 7.14125C74.6591 7.72339 74.5359 8.35006 74.5431 8.98205C74.5431 10.116 75.0095 11.3748 75.8748 12.1891C76.5896 12.8552 77.7242 13.3242 78.9323 13.3242C79.5737 13.3242 81.1479 13.2495 82.6557 11.5964L82.6545 16.6502Z"/>
    <path d="M95.6544 14.3313H89.6874L88.5773 17.0939H84.0645L90.3778 0.644531H95.0422L101.232 17.0939H96.6666L95.6544 14.3313ZM94.5209 11.0741L92.6715 5.74499L90.871 11.0741H94.5209Z"/>
    <path d="M102.983 17.0938V0.638672H107.249L115.116 10.7043V0.638672H119.382V17.088H115.116L107.249 7.02824V17.0938H102.983Z"/>
    <path d="M122.611 17.0938V0.638672H126.878L134.745 10.7043V0.638672H139.01V17.088H134.745L126.878 7.02241V17.088L122.611 17.0938Z"/>
    <path d="M152.37 14.3313H146.403L145.293 17.0938H140.78L147.091 0.638672H151.756L157.945 17.088H153.388L152.37 14.3313ZM151.237 11.0741L149.387 5.74496L147.587 11.0741H151.237Z"/>
    <path d="M159.699 17.0938V0.638672H166.062C167.245 0.638672 168.65 0.811331 169.661 1.92195C170.229 2.53793 170.672 3.55522 170.672 5.00533C170.686 5.70777 170.526 6.40266 170.206 7.02824C169.856 7.66988 169.49 8.0397 168.874 8.31152C169.737 8.40952 170.6 8.805 171.118 9.29848C171.784 9.93895 172.228 11.0006 172.228 12.3084C172.228 13.8623 171.636 14.9228 171.019 15.5399C170.131 16.4522 168.578 17.0938 166.556 17.0938H159.699ZM163.965 7.1274H164.754C165.199 7.1274 165.938 7.07724 166.387 6.60943C166.657 6.3376 166.781 5.89312 166.781 5.5233C166.786 5.11788 166.647 4.72391 166.387 4.41268C166.115 4.14203 165.597 3.92037 164.754 3.92037H163.965V7.1274ZM163.965 13.7631H164.933C166.116 13.7631 167.103 13.6465 167.572 13.097C167.812 12.797 167.936 12.4206 167.921 12.0365C167.921 11.5186 167.749 11.1032 167.502 10.8524C166.984 10.3344 165.924 10.3099 164.864 10.3099H163.975L163.965 13.7631Z"/>
    <path d="M179.2 0.638672V17.088H174.934V0.638672H179.2Z"/>
    <path d="M183.636 12.1607C184.547 13.024 185.928 13.8383 187.408 13.8383C188.271 13.8383 188.789 13.5665 189.06 13.2701C189.331 12.9938 189.482 12.6214 189.48 12.2342C189.48 12.0455 189.438 11.8592 189.357 11.6886C189.276 11.518 189.159 11.3673 189.014 11.2472C188.594 10.8774 187.953 10.7047 186.893 10.3839L185.784 10.0339C185.092 9.81228 184.081 9.44246 183.415 8.70166C182.577 7.78937 182.482 6.62975 182.482 5.79095C182.482 3.76803 183.272 2.53375 183.987 1.82444C184.825 0.985645 186.202 0.270508 188.203 0.270508C189.836 0.270508 191.73 0.788487 193.283 1.60279L191.581 4.93348C190.299 3.92202 189.338 3.82286 188.77 3.82286C188.351 3.82286 187.783 3.92202 187.371 4.31634C187.123 4.5625 186.951 4.83432 186.951 5.20414C186.933 5.46987 187.012 5.73298 187.174 5.94494C187.297 6.0931 187.592 6.38826 188.603 6.68458L189.91 7.0789C190.946 7.39972 192.032 7.7707 192.895 8.71216C193.733 9.59996 193.954 10.5134 193.954 11.6485C193.954 13.1535 193.585 14.6083 192.401 15.7924C191.002 17.1993 189.294 17.47 187.543 17.47C186.442 17.4934 185.346 17.3094 184.313 16.9275C183.432 16.5958 182.596 16.1565 181.822 15.6197L183.636 12.1607Z"/>
    <path d="M9.77492 0.0530882C11.3608 1.2862 12.7881 4.91089 13.04 5.85468C15.2428 6.82531 16.62 8.09809 17.1307 9.63219C17.4636 10.6612 17.3885 11.7789 16.9208 12.7541C16.0159 16.9539 14.4032 19.7969 12.0966 21.226C11.116 21.8478 9.97972 22.1798 8.81871 22.1838C8.56901 22.1841 8.31961 22.1665 8.0724 22.1313C6.01306 22.577 4.70235 23.2863 4.37468 24.1251C4.1123 24.8076 4.58458 25.525 4.5974 25.525C6.4072 27.4663 7.19316 29.46 6.8923 31.3581C6.6171 33.0894 5.49298 34.2304 4.8073 34.7682V39.5163H1.89204C2.15441 41.2079 2.14158 43.0045 0.816885 43.6345C0.617051 43.72 0.404888 43.7731 0.188353 43.792C0.372598 46.4763 0.0973967 49.5562 0.0449219 50.0544C0.149872 50.7893 0.67462 54.1375 2.7981 55.1303L3.03132 55.2878L10.2833 62.3179C10.9575 62.4393 11.5726 62.7806 12.0325 63.2885C13.0552 64.4166 13.3829 66.331 13.0284 68.9932H20.2652L20.4751 69.8857C20.5276 70.119 21.7578 75.5776 18.4426 82.5552L24.932 89.1524L29.713 89.7159L30.0011 90.1755C30.7882 91.4087 34.5489 97.5462 32.479 100.34C32.57 101.835 33.0423 103.607 33.9075 104.183C34.1445 104.339 34.4241 104.417 34.7075 104.406C34.9527 104.396 35.1953 104.352 35.4281 104.274C36.045 102.492 37.1201 101.324 38.6139 100.799C39.2006 100.6 39.817 100.502 40.4366 100.511C42.3898 100.511 44.3955 101.376 45.7727 102.137L45.8111 101.376C44.9855 99.6053 44.9331 98.0969 45.6409 96.9163C46.7942 94.975 49.482 94.8712 49.6057 94.8712C49.9986 94.8969 50.3263 94.9225 50.64 94.9225C50.8114 94.9225 50.9817 94.9225 51.1123 94.9097C50.7206 94.581 50.3844 94.1914 50.1164 93.7559C48.8838 91.7225 50.0768 89.6249 51.5449 88.365L52.5023 78.948L53.6171 79.1452C54.0835 78.738 55.2951 76.3254 56.1079 72.7976L56.2385 72.2458L56.7504 72.0125C57.5492 71.645 57.5492 68.9303 57.0512 66.5562C54.9149 64.1296 55.6228 60.6671 55.8711 59.7233L54.4823 48.6404L54.4683 37.2426L52.3448 26.6718L52.9745 9.77919C50.4791 10.6682 49.889 4.26808 49.7712 0.0449219L9.77492 0.0530882ZM45.34 42.8073C45.0287 43.3906 44.1599 43.9261 44.1599 43.9261L44.7313 44.1746C44.4706 44.6803 44.0262 45.0668 43.4894 45.2549L43.8859 45.6655C43.3775 46.4728 42.272 47.0317 42.272 47.0317L42.5822 47.5415C42.0609 48.2414 40.6196 48.6964 40.6196 48.6964L41.0546 49.1934C40.5185 49.8467 39.7643 50.2839 38.9311 50.4242L39.1923 50.9457C38.72 51.6293 36.8811 51.7413 36.8811 51.7413L37.0805 52.1508C35.7628 53.0211 34.9185 53.1261 34.9185 53.1261L35.0795 53.4994C34.2224 53.7479 32.5583 54.5925 31.5403 55.1385C31.5643 55.1813 31.5808 55.2278 31.5893 55.2761C32.3601 55.0638 33.4282 54.7407 33.9378 54.4805L34.0241 54.7407C34.0241 54.7407 34.5081 54.3907 35.589 54.1947L35.6882 54.5178C35.6882 54.5178 36.6817 53.6849 37.2531 53.8097L37.3697 54.1947C37.8629 53.8652 38.458 53.724 39.0465 53.7969L39.0582 54.2694C39.0582 54.2694 40.0156 53.8097 40.6115 53.9089L40.6978 54.3184C40.6978 54.3184 41.5304 54.0699 42.188 54.232L42.1636 54.6415C42.5277 54.477 42.9412 54.4595 43.318 54.5925L43.1524 54.9927C43.1524 54.9927 43.8521 54.8433 44.2952 54.9927L44.2824 55.1922C44.2824 55.1922 45.6234 55.254 46.6799 55.751C46.1678 55.9647 45.6286 56.1068 45.0777 56.1733C44.6054 56.2351 44.2707 56.2479 44.2707 56.2479V56.4463C43.8229 56.5828 43.1279 56.4218 43.1279 56.4218L43.2888 56.8312C42.9071 56.9504 42.4942 56.9196 42.1344 56.7449V57.1427C41.4756 57.2909 40.6558 57.0179 40.6558 57.0179L40.5567 57.4286C39.9479 57.5149 39.0046 57.0307 39.0046 57.0307L38.9789 57.4904C38.3886 57.5467 37.7977 57.3881 37.3149 57.0436L37.1913 57.4402C36.6199 57.5394 35.6508 56.6831 35.6508 56.6831L35.5517 56.9806C34.4707 56.7578 33.9996 56.3973 33.9996 56.3973L33.8994 56.6574C33.4026 56.3844 32.3356 56.0368 31.5671 55.7755C31.5247 55.9019 31.4561 56.0179 31.3656 56.1158C31.2752 56.2137 31.165 56.2914 31.0424 56.3436C31.0237 58.0072 30.8698 61.3916 29.9672 62.7005L29.376 62.291C30.106 61.2329 30.2996 58.2149 30.3241 56.3728C30.1778 56.3196 30.0475 56.23 29.9455 56.1124C29.8435 55.9948 29.7731 55.8532 29.741 55.7008C28.9714 55.9248 27.9534 56.2351 27.4566 56.4836L27.3692 56.2223C27.3692 56.2223 26.8852 56.5723 25.8042 56.7578L25.7051 56.4463C25.7051 56.4463 24.7116 57.2792 24.1402 57.1544L24.0236 56.7578C23.5305 57.087 22.9372 57.232 22.3479 57.1672L22.3351 56.6948C22.3351 56.6948 21.3789 57.1544 20.783 57.0552L20.685 56.6493C20.685 56.6493 19.8524 56.8977 19.2064 56.7239L19.2192 56.3261C18.855 56.492 18.4406 56.5096 18.0636 56.3751L18.2374 55.9656C18.2374 55.9656 17.5377 56.1149 17.0957 55.9656L17.1074 55.7661C17.1074 55.7661 15.7536 55.7043 14.7111 55.2073C15.2231 54.9934 15.7623 54.8513 16.3133 54.785C16.7797 54.7232 17.1202 54.7103 17.1202 54.7103V54.512C17.5669 54.3755 18.2619 54.5365 18.2619 54.5365L18.1009 54.127C18.4831 54.0079 18.8963 54.0387 19.2565 54.2134V53.8039C19.9142 53.6674 20.7212 53.9275 20.7212 53.9275L20.8378 53.5297C21.4337 53.4434 22.3782 53.9275 22.3782 53.9275L22.4155 53.4609C23.0027 53.4088 23.589 53.5703 24.0667 53.9159L24.1915 53.5181C24.7746 53.4189 25.7319 54.2752 25.7319 54.2752L25.8427 53.9649C26.9237 54.1889 27.396 54.5622 27.396 54.5622L27.4823 54.3009C27.9662 54.5622 28.9982 54.9098 29.7678 55.1583C29.7708 55.1371 29.7751 55.116 29.7807 55.0953C28.7708 54.526 27.1441 53.63 26.2823 53.3594L26.4677 53.0094C26.4677 53.0094 25.6235 52.8729 24.3326 51.9664L24.5565 51.5558C24.5565 51.5558 22.7175 51.3948 22.2581 50.6855L22.5438 50.1769C21.712 50.0112 20.9673 49.5526 20.4448 48.8842L20.9171 48.4001C20.9171 48.4001 19.4758 47.8903 18.9673 47.195L19.2904 46.6852C19.2904 46.6852 18.2094 46.089 17.7126 45.2689L18.1476 44.8839C17.6091 44.6829 17.1686 44.2823 16.9173 43.7651L17.5004 43.5166C17.5004 43.5166 16.6561 42.9578 16.3576 42.3617L16.5687 42.175C16.5687 42.175 15.2778 40.7459 14.7029 39.1931V39.1803C16.2771 39.7881 17.6531 41.1181 17.6531 41.1181L17.8514 40.9186C18.4344 41.2289 18.9697 42.0992 18.9697 42.0992L19.2297 41.5275C19.7357 41.7881 20.1225 42.2327 20.3107 42.77L20.72 42.3722C21.5153 42.8948 22.0739 43.9879 22.0739 43.9879L22.5963 43.6776C23.2959 44.1991 23.7507 45.6527 23.7507 45.6527L24.2475 45.2059C24.8993 45.748 25.3353 46.5058 25.4766 47.342L25.999 47.069C26.6823 47.5415 26.7931 49.3929 26.7931 49.3929L27.2036 49.1817C28.0723 50.4988 28.1726 51.3435 28.1726 51.3435L28.5329 51.1813C28.7801 52.0271 29.6011 53.6417 30.1468 54.6602C30.2075 54.6195 30.275 54.5902 30.3462 54.5738C29.9731 53.2439 29.3142 50.9573 28.793 49.9645L29.2524 49.8024C29.2524 49.8024 28.6565 48.9706 28.3195 47.1063L28.8536 46.9453C28.8536 46.9453 27.4263 45.2304 27.6374 44.2493L28.3195 44.0498C27.7519 43.1979 27.5041 42.1726 27.6199 41.1554L28.4268 41.1426C28.4268 41.1426 27.6444 39.4778 27.8064 38.4593L28.5143 38.2972C28.5143 38.2972 28.1038 36.8681 28.3778 35.7505L29.0775 35.7749C28.7913 35.1443 28.76 34.4274 28.99 33.7742L29.699 34.0729C29.699 34.0729 29.4507 32.8677 29.699 32.1094L30.0489 32.1223C30.0489 32.1223 30.1655 29.7984 31.0051 27.9971C31.0051 27.9854 31.0179 27.9854 31.0179 27.9854C31.8248 29.8357 31.8622 32.1468 31.8622 32.1468H32.212C32.4452 32.9179 32.1619 34.1102 32.1619 34.1102L32.8708 33.8372C33.0769 34.493 33.0234 35.2029 32.7216 35.8204H33.4212C33.6696 36.9509 33.2102 38.3672 33.2102 38.3672L33.9098 38.541C34.0579 39.5723 33.2265 41.2126 33.2265 41.2126L34.0206 41.2627C34.1139 42.2765 33.8409 43.2902 33.251 44.1198L33.9215 44.3309C34.1081 45.3249 32.6178 46.9897 32.6178 46.9897L33.1519 47.1763C32.7671 49.0429 32.1339 49.8479 32.1339 49.8479L32.5921 50.0089C32.0592 50.9912 31.3386 53.2147 30.9281 54.5447C31.0256 54.5706 31.1182 54.6124 31.2021 54.6683C31.7735 53.6627 32.6423 52.0843 32.9152 51.2396L33.2755 51.4135C33.2755 51.4135 33.4131 50.5688 34.3063 49.2762L34.7168 49.5002C34.7168 49.5002 34.8042 48.4969 35.1366 47.7865C35.1775 47.7016 35.2354 47.6261 35.3067 47.5646C35.3779 47.503 35.4611 47.4568 35.5509 47.4287C35.6408 47.4006 35.7354 47.3912 35.829 47.4012C35.9226 47.4112 36.0132 47.4402 36.0951 47.4866C36.2636 46.6557 36.7215 45.9115 37.3872 45.3867L37.8711 45.8592C37.8711 45.8592 38.3807 44.4184 39.0757 43.9214L39.576 44.2364C39.576 44.2364 40.1718 43.155 40.9916 42.6708L41.3764 43.0931C41.579 42.5597 41.9778 42.1239 42.4912 41.8752L42.7384 42.4585C42.7384 42.4585 43.2982 41.601 43.8941 41.3036L44.0806 41.5135C44.0806 41.5135 45.5091 40.2221 47.0612 39.6633H47.074C46.4653 41.2161 45.136 42.595 45.136 42.595L45.34 42.8073Z"/>
  </symbol>

  <symbol id="twitter" viewBox="0 0 32 32">
    <path d="M28.2496 0.00585938H4.20421C2.39397 0.00585938 0.925293 1.51049 0.925293 3.36503V27.9989C0.925293 29.8535 2.39397 31.3581 4.20421 31.3581H28.2496C30.0598 31.3581 31.5285 29.8535 31.5285 27.9989V3.36503C31.5285 1.51049 30.0598 0.00585938 28.2496 0.00585938ZM24.9092 11.1191C24.9228 11.3151 24.9228 11.518 24.9228 11.714C24.9228 17.7815 20.4143 24.7727 12.1761 24.7727C9.6349 24.7727 7.27819 24.0169 5.29718 22.7152C5.65922 22.7572 6.00761 22.7712 6.37648 22.7712C8.47362 22.7712 10.4 22.0434 11.937 20.8117C9.96963 20.7697 8.31651 19.447 7.74953 17.6275C8.43947 17.7325 9.06109 17.7325 9.77152 17.5435C7.7222 17.1166 6.18521 15.2691 6.18521 13.0366V12.9806C6.77952 13.3236 7.47629 13.5335 8.20721 13.5615C7.59271 13.1427 7.08895 12.5747 6.7409 11.9079C6.39285 11.2412 6.21133 10.4965 6.21254 9.74045C6.21254 8.88666 6.43113 8.10285 6.8205 7.42402C9.02694 10.2093 12.34 12.0289 16.0561 12.2248C15.4208 9.1106 17.6956 6.58423 20.428 6.58423C21.7191 6.58423 22.8803 7.13709 23.7001 8.03287C24.7111 7.83692 25.6811 7.45201 26.5418 6.92714C26.2071 7.99088 25.5035 8.88666 24.5744 9.45352C25.4761 9.35554 26.3505 9.09661 27.1566 8.7397C26.5486 9.65647 25.7835 10.4683 24.9092 11.1191Z" />
  </symbol>

  <symbol id="instagram" viewBox="0 0 32 32"  xmlns="http://www.w3.org/2000/svg">
    <path d="M15.7676 7.64036C11.4231 7.64036 7.91874 11.2305 7.91874 15.6814C7.91874 20.1323 11.4231 23.7224 15.7676 23.7224C20.1122 23.7224 23.6165 20.1323 23.6165 15.6814C23.6165 11.2305 20.1122 7.64036 15.7676 7.64036ZM15.7676 20.9091C12.9601 20.9091 10.6648 18.5647 10.6648 15.6814C10.6648 12.7981 12.9532 10.4537 15.7676 10.4537C18.582 10.4537 20.8704 12.7981 20.8704 15.6814C20.8704 18.5647 18.5752 20.9091 15.7676 20.9091V20.9091ZM25.7683 7.31144C25.7683 8.35418 24.9486 9.18698 23.9376 9.18698C22.9198 9.18698 22.1069 8.34718 22.1069 7.31144C22.1069 6.2757 22.9266 5.4359 23.9376 5.4359C24.9486 5.4359 25.7683 6.2757 25.7683 7.31144ZM30.9668 9.21497C30.8506 6.70259 30.2905 4.47714 28.4939 2.6436C26.7042 0.810049 24.5319 0.236192 22.0795 0.110223C19.552 -0.0367409 11.9764 -0.0367409 9.4489 0.110223C7.00338 0.229193 4.8311 0.803051 3.03454 2.6366C1.23797 4.47014 0.68465 6.69559 0.561691 9.20797C0.418238 11.7973 0.418238 19.5584 0.561691 22.1478C0.677819 24.6601 1.23797 26.8856 3.03454 28.7191C4.8311 30.5527 6.99655 31.1265 9.4489 31.2525C11.9764 31.3995 19.552 31.3995 22.0795 31.2525C24.5319 31.1335 26.7042 30.5597 28.4939 28.7191C30.2836 26.8856 30.8438 24.6601 30.9668 22.1478C31.1102 19.5584 31.1102 11.8043 30.9668 9.21497V9.21497ZM27.7015 24.9261C27.1687 26.2977 26.1372 27.3545 24.7915 27.9073C22.7763 28.7261 17.9946 28.5372 15.7676 28.5372C13.5407 28.5372 8.75213 28.7191 6.7438 27.9073C5.40491 27.3615 4.37342 26.3047 3.83377 24.9261C3.03454 22.8616 3.21897 17.9628 3.21897 15.6814C3.21897 13.3999 3.04137 8.49415 3.83377 6.43666C4.36659 5.065 5.39808 4.00826 6.7438 3.45539C8.75897 2.6366 13.5407 2.82555 15.7676 2.82555C17.9946 2.82555 22.7831 2.6436 24.7915 3.45539C26.1304 4.00126 27.1618 5.058 27.7015 6.43666C28.5007 8.50114 28.3163 13.3999 28.3163 15.6814C28.3163 17.9628 28.5007 22.8686 27.7015 24.9261Z" />
  </symbol>

  <symbol id="facebook" viewBox="0 0 31 32" xmlns="http://www.w3.org/2000/svg">
    <path d="M27.3243 0.00585938H3.27891C2.40929 0.00585938 1.57529 0.359771 0.960371 0.989737C0.345456 1.6197 0 2.47412 0 3.36503L0 27.9989C0 28.8898 0.345456 29.7442 0.960371 30.3742C1.57529 31.0042 2.40929 31.3581 3.27891 31.3581H12.6546V20.699H8.35098V15.682H12.6546V11.8581C12.6546 7.5087 15.182 5.1062 19.0532 5.1062C20.9072 5.1062 22.8458 5.44491 22.8458 5.44491V9.71385H20.7097C18.6051 9.71385 17.9486 11.0519 17.9486 12.4243V15.682H22.647L21.8956 20.699H17.9486V31.3581H27.3243C28.1939 31.3581 29.0279 31.0042 29.6428 30.3742C30.2577 29.7442 30.6032 28.8898 30.6032 27.9989V3.36503C30.6032 2.47412 30.2577 1.6197 29.6428 0.989737C29.0279 0.359771 28.1939 0.00585938 27.3243 0.00585938V0.00585938Z" />
  </symbol>

  <symbol id="news" viewBox="0 0 31 32" xmlns="http://www.w3.org/2000/svg">
    <path d="M0 0H26C28.7614 0 31 2.23858 31 5V26C31 28.7614 28.7614 31 26 31H0V0Z" />
    <path d="M13.3101 9.74654C12.9201 10.1387 12.9201 10.7721 13.3101 11.1643L17.1901 15.0655L13.3101 18.9667C12.9201 19.3589 12.9201 19.9923 13.3101 20.3845C13.7001 20.7766 14.3301 20.7766 14.7201 20.3845L19.3101 15.7693C19.7001 15.3772 19.7001 14.7437 19.3101 14.3516L14.7201 9.73649C14.3401 9.35441 13.7001 9.35441 13.3101 9.74654Z" fill="white"/>
  </symbol>

<symbol id="triangle" viewBox="0 0 12 8" xmlns="http://www.w3.org/2000/svg">
  <path d="M0.954182 3.10191L4.92188 7.0696C5.51933 7.66706 6.48445 7.66706 7.0819 7.0696L11.0496 3.10191C12.0147 2.13679 11.3253 0.482307 9.96193 0.482307H2.02653C0.663115 0.482307 -0.0109332 2.13679 0.954182 3.10191Z"/>
</symbol>

  <symbol id="video" viewBox="0 0 22 18" xmlns="http://www.w3.org/2000/svg">
   <path d="M20 0H2C0.9 0 0 0.9 0 2V14C0 15.1 0.9 16 2 16H7V17C7 17.55 7.45 18 8 18H14C14.55 18 15 17.55 15 17V16H20C21.1 16 21.99 15.1 21.99 14L22 2C22 0.89 21.1 0 20 0ZM19 14H3C2.45 14 2 13.55 2 13V3C2 2.45 2.45 2 3 2H19C19.55 2 20 2.45 20 3V13C20 13.55 19.55 14 19 14ZM13.48 8.87L9.5 11.15C8.83 11.53 8 11.04 8 10.28V5.72C8 4.95 8.83 4.47 9.5 4.85L13.48 7.13C14.15 7.52 14.15 8.48 13.48 8.87Z"/>
  </symbol>

  <symbol id="house" viewBox="0 0 22 20" xmlns="http://www.w3.org/2000/svg">
    <path d="M2.61109 2.80949H19.3889C20.048 2.80949 20.5873 2.2702 20.5873 1.61107C20.5873 0.951946 20.048 0.412659 19.3889 0.412659H2.61109C1.95196 0.412659 1.41267 0.951946 1.41267 1.61107C1.41267 2.2702 1.95196 2.80949 2.61109 2.80949ZM20.7791 4.96664C20.6712 4.41537 20.1799 4.00791 19.6046 4.00791H2.39538C1.82014 4.00791 1.32878 4.41537 1.22093 4.96664L0.0225116 10.9587C-0.121298 11.7017 0.441957 12.3968 1.19696 12.3968H1.41267V18.3889C1.41267 19.048 1.95196 19.5873 2.61109 19.5873H12.1984C12.8575 19.5873 13.3968 19.048 13.3968 18.3889V12.3968H18.1905V18.3889C18.1905 19.048 18.7298 19.5873 19.3889 19.5873C20.048 19.5873 20.5873 19.048 20.5873 18.3889V12.3968H20.803C21.558 12.3968 22.1213 11.7017 21.9775 10.9587L20.7791 4.96664ZM11 17.1905H3.80951V12.3968H11V17.1905Z"/>
  </symbol>

  <symbol id="bill" viewBox="0 0 20 22" xmlns="http://www.w3.org/2000/svg">
    <path d="M18.2501 1.65L16.6001 0L14.9501 1.65L13.3001 0L11.6501 1.65L10.0001 0L8.3501 1.65L6.7001 0L5.0501 1.65L3.4001 0V15.4H1.2001C0.595098 15.4 0.100098 15.895 0.100098 16.5V18.7C0.100098 20.526 1.5741 22 3.4001 22H16.6001C18.4261 22 19.9001 20.526 19.9001 18.7V0L18.2501 1.65ZM13.3001 19.8H3.4001C2.7951 19.8 2.3001 19.305 2.3001 18.7V17.6H5.6001H10.0001H13.3001V19.8ZM17.7001 18.7C17.7001 19.305 17.2051 19.8 16.6001 19.8C15.9951 19.8 15.5001 19.305 15.5001 18.7V16.5C15.5001 15.895 15.0051 15.4 14.4001 15.4H12.2001H10.0001H5.6001V3.3H17.7001V18.7Z"/>
  </symbol>

  <symbol id="calendar" viewBox="0 0 20 21" xmlns="http://www.w3.org/2000/svg">
    <path d="M7.20005 9.31966H5.06672V11.3082H7.20005V9.31966ZM11.4667 9.31966H9.33338V11.3082H11.4667V9.31966ZM15.7334 9.31966H13.6V11.3082H15.7334V9.31966ZM17.8667 2.35967H16.8V0.371094H14.6667V2.35967H6.13338V0.371094H4.00005V2.35967H2.93338C1.74938 2.35967 0.810715 3.25452 0.810715 4.34824L0.800049 18.2682C0.800049 19.3619 1.74938 20.2568 2.93338 20.2568H17.8667C19.04 20.2568 20 19.3619 20 18.2682V4.34824C20 3.25452 19.04 2.35967 17.8667 2.35967ZM17.8667 18.2682H2.93338V7.33109H17.8667V18.2682Z" />
  </symbol>

  <symbol id="external" viewBox="0 0 16 16" xmlns="http://www.w3.org/2000/svg">
    <path d="M12.889 13.7037H3.11119C2.66304 13.7037 2.29638 13.337 2.29638 12.8888V3.11107C2.29638 2.66292 2.66304 2.29626 3.11119 2.29626H7.18527C7.63341 2.29626 8.00008 1.92959 8.00008 1.48144C8.00008 1.03329 7.63341 0.666626 7.18527 0.666626H2.29638C1.39193 0.666626 0.666748 1.39996 0.666748 2.29626V13.7037C0.666748 14.6 1.40008 15.3333 2.29638 15.3333H13.7038C14.6001 15.3333 15.3334 14.6 15.3334 13.7037V8.81477C15.3334 8.36663 14.9667 7.99996 14.5186 7.99996C14.0705 7.99996 13.7038 8.36663 13.7038 8.81477V12.8888C13.7038 13.337 13.3371 13.7037 12.889 13.7037ZM9.62971 1.48144C9.62971 1.92959 9.99638 2.29626 10.4445 2.29626H12.5549L5.11564 9.73551C4.79786 10.0533 4.79786 10.5666 5.11564 10.8844C5.43341 11.2022 5.94675 11.2022 6.26453 10.8844L13.7038 3.44514V5.55551C13.7038 6.00366 14.0705 6.37033 14.5186 6.37033C14.9667 6.37033 15.3334 6.00366 15.3334 5.55551V1.48144C15.3334 1.03329 14.9667 0.666626 14.5186 0.666626H10.4445C9.99638 0.666626 9.62971 1.03329 9.62971 1.48144Z" />
  </symbol>

  <symbol id="chevron" viewBox="0 0 10 16" xmlns="http://www.w3.org/2000/svg">
    <path d="M1.05949 1.0526C0.547229 1.56486 0.547229 2.39235 1.05949 2.90461L6.15579 8.00091L1.05949 13.0972C0.547229 13.6095 0.547229 14.437 1.05949 14.9492C1.57174 15.4615 2.39924 15.4615 2.91149 14.9492L8.94037 8.92035C9.45263 8.40809 9.45263 7.5806 8.94037 7.06834L2.91149 1.03946C2.41237 0.540341 1.57174 0.540342 1.05949 1.0526Z" />
  </symbol>
</svg>
