<svg class="mobile-submit-svg" width="37" height="37" viewBox="0 0 31 31" fill="#10A882" xmlns="http://www.w3.org/2000/svg">
<rect width="31" height="31" fill="white"/>
<path d="M0 0H26C28.7614 0 31 2.23858 31 5V26C31 28.7614 28.7614 31 26 31H0V0Z" />
<path d="M13.3101 9.74654C12.9201 10.1387 12.9201 10.7721 13.3101 11.1643L17.1901 15.0655L13.3101 18.9667C12.9201 19.3589 12.9201 19.9923 13.3101 20.3845C13.7001 20.7766 14.3301 20.7766 14.7201 20.3845L19.3101 15.7693C19.7001 15.3772 19.7001 14.7437 19.3101 14.3516L14.7201 9.73649C14.3401 9.35441 13.7001 9.35441 13.3101 9.74654Z" fill="white"/>
</svg>
