<svg class="mobile logo" width="265" height="91" viewBox="0 0 265 91" fill="#10A882" xmlns="http://www.w3.org/2000/svg">
<path d="M127.698 68.7023C122.473 70.5922 119.596 71.2014 116.341 71.2014C107.557 71.2014 100.97 67.7123 96.8065 63.6301C91.884 58.7091 89.1597 51.8182 89.1597 45.2312C89.1597 38.038 92.2649 31.2242 96.8079 26.6055C101.274 22.0625 108.014 18.7305 115.887 18.7305C118.311 18.7305 122.247 19.1099 127.699 21.3051V36.9782C123.458 31.7548 118.462 31.4539 116.267 31.4539C112.487 31.4539 109.603 32.5892 107.181 34.7859C104.075 37.6629 102.789 41.5997 102.789 45.1585C102.789 48.6476 104.228 52.503 106.877 55.002C109.073 57.046 112.557 58.491 116.267 58.491C118.235 58.491 123.08 58.2643 127.699 53.1921L127.698 68.7023Z" />
<path d="M171.089 30.694H155.492V39.0997H170.256V50.2298H155.492V58.9364H171.089V70.0664H142.393V19.5654H171.089V30.694Z" />
<path d="M198.898 19.5654V70.0664H185.8V19.5654H198.898Z" />
<path d="M248.869 68.7023C243.646 70.5922 240.769 71.2014 237.512 71.2014C228.728 71.2014 222.141 67.7123 217.978 63.6301C213.057 58.7091 210.331 51.8182 210.331 45.2312C210.331 38.038 213.435 31.2242 217.978 26.6055C222.445 22.0625 229.184 18.7305 237.059 18.7305C239.481 18.7305 243.417 19.1099 248.869 21.3051V36.9782C244.63 31.7548 239.632 31.4539 237.437 31.4539C233.657 31.4539 230.774 32.5892 228.351 34.7859C225.247 37.6629 223.959 41.5997 223.959 45.1585C223.959 48.6476 225.398 52.503 228.048 55.002C230.243 57.046 233.727 58.491 237.437 58.491C239.405 58.491 244.25 58.2643 248.869 53.1921V68.7023Z" />
<path d="M45.4126 75.672C45.3705 74.7561 45.2396 73.8577 45.2847 72.92C45.4461 69.5022 45.5406 66.019 45.5406 62.5983L45.8168 61.3306C45.7732 62.2944 45.1757 63.1027 44.7861 63.9648C44.7352 64.0753 44.616 64.571 44.5171 64.6146C44.2496 64.7324 44.2947 64.2977 44.0272 64.3675C43.7597 64.4373 43.1549 65.4491 42.9834 65.6977C42.838 65.9056 41.8887 67.1078 41.7942 66.458C41.5441 66.57 41.406 66.9508 41.2127 67.1558C40.9975 67.387 40.7838 67.5789 40.5934 67.8246C40.2141 68.3444 39.7982 68.8365 39.349 69.2972C38.657 69.9572 39.0291 68.8218 39.1672 68.4133C39.351 67.8768 39.5651 67.3512 39.8084 66.8389C40.1016 66.2033 40.5159 65.631 41.0281 65.154C40.9292 65.1903 40.6748 65.2238 40.6312 65.0609C40.5876 64.8981 40.9336 64.7237 41.0208 64.6364C41.2432 64.4111 41.6023 64.1044 41.7579 63.8558C41.6978 63.8416 41.6386 63.8241 41.5805 63.8034C41.595 63.328 42.8089 62.45 43.1695 62.1781C43.53 61.9063 44.4037 61.0485 44.7555 61.1329L44.645 61.0151C44.1551 61.3553 43.6652 61.6082 43.184 61.9688C42.9034 62.1781 42.6025 62.3409 42.3117 62.5503C42.21 62.6244 41.2389 63.328 41.5849 62.8003C40.8347 63.1274 40.1122 64.2817 39.2356 64.2396C39.2036 64.0244 39.442 63.8834 39.5176 63.6915C39.2777 63.6057 38.8198 63.9532 38.5712 64.0564C38.1927 64.2187 37.8043 64.3566 37.4082 64.4693C36.9386 64.5972 35.5822 64.6844 36.4763 63.943C35.8207 64.2337 35.1432 64.3021 34.4687 64.4504C34.1648 64.5172 33.8523 64.683 33.5368 64.5579C33.0367 64.3588 33.4525 63.9255 33.8275 63.7322V63.6929C32.8637 63.8645 31.9958 64.5245 30.9462 64.2744C31.0218 63.895 30.2891 64.0026 30.0245 64.0026C29.6364 63.9964 29.2482 64.01 28.8615 64.0433C28.248 64.1073 27.5327 64.4474 26.9251 64.3966L27.0355 64.5143C26.7099 64.1378 28.2145 63.1783 28.4893 63.0286C29.0708 62.7218 29.7119 62.5837 30.3123 62.4209C29.9692 61.96 32.1295 61.3262 32.4247 61.1794C32.3589 61.1654 32.297 61.1368 32.2437 61.0958C32.1904 61.0548 32.1469 61.0024 32.1165 60.9424C32.8433 60.5586 33.5702 60.6662 34.3582 60.6124C34.2129 60.5533 34.092 60.4467 34.0151 60.31C34.9208 59.8913 35.8352 60.2359 36.7685 60.1385C35.905 59.6718 37.5914 59.6093 37.8777 59.6747C38.295 59.7692 38.7747 59.8361 39.1542 59.9902H39.2268C38.8009 59.6704 39.49 59.6268 39.663 59.6355C40.0208 59.6406 40.3767 59.6894 40.7228 59.7808C41.092 59.8913 41.4424 60.0803 41.8204 60.1457C42.1983 60.2112 41.9745 60.0716 42.2405 59.9829C42.3961 59.932 44.2307 59.8739 44.5215 60.0076C44.5215 60.0076 40.9059 58.8839 41.2083 58.4085L41.14 58.4361C40.7039 58.4099 40.3114 58.2777 39.8898 58.1846C39.6746 58.1352 38.5814 57.9099 39.112 57.5231C38.5135 57.507 37.9189 57.4221 37.3398 57.2702C36.8296 57.1335 36.0489 56.6596 36.706 56.238L36.6493 56.302C36.1856 56.3776 35.2072 56.0505 34.726 55.8746C34.5675 55.8179 33.8915 55.6056 33.8871 55.3745C33.8871 55.2625 34.3524 54.998 34.4527 54.8918C33.7667 54.8351 33.095 54.6641 32.4654 54.3859C32.1121 54.2231 31.0363 53.3581 31.9711 53.1546L31.958 53.1168C31.6891 53.3596 30.7339 52.9714 30.4141 52.8028C29.5825 52.3434 30.3298 52.3157 30.5871 51.7691C30.3807 51.5976 29.962 51.6499 29.6988 51.5743C29.3329 51.4654 28.9772 51.3244 28.6361 51.1527C28.3934 51.0306 27.9441 50.7588 27.9965 50.4258C28.0343 50.1889 28.3701 50.029 28.4937 49.9897L28.5998 50.0726C28.091 49.7818 27.4179 49.7818 26.8742 49.5143C26.6837 49.4227 26.1735 49.257 26.1327 48.991C26.092 48.7249 26.4715 48.6246 26.6328 48.4255C26.0949 48.2074 25.4945 48.2423 24.9872 47.8905C24.8156 47.7727 24.522 47.5445 24.551 47.309C24.5772 47.104 24.8273 47.0008 24.8985 46.8394L24.8302 46.8656C24.3485 46.7634 23.8816 46.6013 23.4404 46.3829C23.247 46.2768 23.0042 46.0791 23.0246 45.8145C23.0449 45.5499 23.2674 45.5092 23.3662 45.3071C23.042 44.9873 22.4242 45.0731 22.0666 44.7881C21.5752 44.3985 22.1901 44.1601 22.4693 43.9406C22.1131 43.6789 19.7841 42.6322 21.1405 42.1568L21.1739 42.1437C20.9864 41.9315 18.595 40.7059 19.6577 40.1869C19.4599 39.9965 19.1852 39.8787 18.9599 39.7028C18.6938 39.4979 18.7287 39.3961 18.6124 39.1213C18.3013 38.4163 17.2778 37.8362 16.7225 37.2634C16.4041 36.9305 14.978 35.7675 15.2062 35.3037L15.1641 35.3401C15.6874 35.0581 16.9086 35.987 17.3607 36.2545C18.2969 36.7968 19.1547 37.4539 20.0705 38.0194C20.4034 37.6647 21.3891 38.7012 21.6857 38.8916C22.1436 38.2534 23.3909 39.1301 23.5596 39.7101L23.705 39.6941C24.2777 38.6023 25.8856 40.7234 26.3944 41.3064C26.5398 40.9865 26.5805 40.5795 27.0021 40.5882C27.3234 40.5955 27.5967 40.9807 27.793 41.2104C28.1884 41.6698 28.719 42.3153 28.9487 42.7877L28.9138 42.8023C29.2496 42.6845 29.097 41.7396 29.5796 41.7745C30.0041 41.8064 30.2585 42.8052 30.4955 43.0829C30.827 42.3371 31.4114 44.3491 31.5277 44.5366C31.9638 44.3912 31.6193 43.5568 32.1615 44.1572C32.4147 44.4692 32.6463 44.798 32.855 45.1414L32.8768 45.092C33.2097 44.6108 33.5353 46.1736 33.5659 46.3597C33.5353 45.9555 33.7796 45.8479 34.034 46.0398C34.2346 46.1925 34.3698 46.5472 34.4905 46.7667C34.7274 47.1898 35.2726 47.889 35.3148 48.2859L35.3496 48.2714C35.5822 47.3715 36.1449 48.3746 36.3673 48.7322C36.6755 49.2367 36.9488 49.7789 37.2395 50.2834C37.5201 49.5856 38.3764 50.971 38.5363 51.2472C38.9027 50.8474 39.3446 52.1849 39.4464 52.435C39.4464 52.3855 39.4638 52.3245 39.4682 52.2721C40.0221 52.0875 40.4698 53.4192 40.6472 53.8102C41.0513 53.6023 41.3857 54.8598 41.4875 55.1622L41.5005 55.1986C41.5311 55.1535 41.6997 55.1099 41.7419 55.0895C42.0108 55.2538 42.1431 55.7975 43.0023 56.7439C43.0386 55.7379 45.0666 58.4681 45.4359 59.1034C45.4359 59.1034 43.9923 55.9153 44.898 55.767C44.5215 55.0895 43.78 54.0515 43.9516 53.5384C44.001 53.5529 44.0563 53.5558 44.1071 53.5704C44.1493 53.3988 43.1985 51.5743 43.9196 51.961L43.8833 51.8825C43.6521 51.301 43.3018 50.782 43.0343 50.2209C42.8307 49.7935 42.3932 48.847 43.1884 49.0041C42.9499 48.4226 42.6156 47.8876 42.3583 47.3177C42.2696 47.12 42.0384 46.6766 42.0922 46.4454C42.178 46.0791 42.415 46.2637 42.6737 46.3233C42.6737 45.7026 42.1867 44.8623 41.9352 44.3098C41.6445 43.6789 41.5194 42.8197 42.3713 43.1803H42.2987C41.8625 42.5653 41.4438 42.0521 41.1356 41.3296C41.0542 41.1348 40.7649 40.5955 40.9394 40.4312C41.0237 40.3512 41.5849 40.4152 41.7404 40.3483C41.707 40.0081 41.7695 39.697 41.6168 39.399C41.4402 39.0622 41.3031 38.7061 41.2083 38.3378C41.063 37.7562 41.2287 37.1878 41.8567 37.5527V37.6312C41.7549 37.3812 40.5192 36.1353 41.1502 35.939C40.9132 35.7064 40.6908 34.8618 40.8056 34.5245C40.9612 34.068 41.4715 34.2338 41.784 34.2468L41.7113 34.2076C41.4206 33.5519 41.3842 32.8658 41.2549 32.1607C41.2127 31.9368 41.0353 31.2986 41.1545 31.0776C41.345 30.7258 41.8204 30.973 42.0617 31.1256C41.9047 30.7709 41.8843 30.3987 41.7957 29.9975C41.7637 29.8521 41.6227 29.5192 41.7709 29.416C41.848 29.3622 42.1009 29.5148 42.1649 29.4872L42.1286 29.448C42.1024 29.4741 42.162 29.5483 42.0922 29.4945C41.9468 29.0583 41.6706 28.4623 41.6561 27.9927C41.6212 27.0332 42.2928 27.702 42.7115 27.6715C42.729 27.1423 42.5356 26.6117 42.5327 26.0621C42.5327 25.7423 42.4295 24.8075 42.7799 24.652C43.2509 24.4412 43.9269 25.5402 43.828 24.4601C43.7763 23.9603 43.7632 23.4572 43.7888 22.9554C43.8237 22.4074 44.0795 22.0992 44.4837 22.5615V22.4146C44.3157 21.9465 44.3029 21.4368 44.4473 20.9609C44.7177 19.9519 44.8195 18.8631 44.9605 17.8236C45.0259 17.3352 45.0724 16.8467 45.1233 16.3568C45.1626 15.9759 45.6191 15.2199 45.9607 15.1661C46.3023 15.1123 46.6992 16.1227 46.7399 16.5036C46.7908 16.9935 46.8373 17.4805 46.9027 17.969C47.0481 19.0099 47.1455 20.0973 47.4145 21.1077C47.5606 21.5833 47.5479 22.0937 47.3781 22.5615V22.7214C47.7881 22.2576 48.0381 22.5673 48.0745 23.1139C48.0993 23.6133 48.0856 24.1139 48.0338 24.6113C47.9349 25.6914 48.6153 24.5924 49.0834 24.8032C49.4323 24.9587 49.3305 25.8935 49.3291 26.2133C49.3291 26.7628 49.1343 27.2949 49.1503 27.8226C49.569 27.8604 50.242 27.1844 50.2057 28.1439C50.1883 28.6149 49.915 29.2023 49.7696 29.6471C49.6998 29.7009 49.7594 29.6268 49.7347 29.5991L49.6983 29.6399C49.7609 29.6675 50.0153 29.5134 50.0923 29.5672C50.2377 29.6718 50.0923 30.0033 50.0676 30.1487C49.9713 30.5372 49.8364 30.9151 49.6649 31.2768C49.9077 31.1314 50.3831 30.877 50.5735 31.2288C50.6927 31.4513 50.5139 32.088 50.4732 32.3119C50.3438 33.017 50.4369 33.7031 50.1519 34.3602L50.0778 34.3995C50.3918 34.385 50.9021 34.2192 51.0576 34.6772C51.171 35.013 50.9486 35.8591 50.7116 36.0917C51.344 36.2879 50.3787 37.5324 50.2755 37.7839V37.7039C50.905 37.339 51.0692 37.9089 50.9253 38.4889C50.8323 38.864 50.9617 39.2158 50.7872 39.5502C50.6346 39.841 50.2915 40.1593 50.258 40.4995C50.4136 40.5678 50.9748 40.4995 51.0591 40.5824C51.2335 40.7481 50.9428 41.286 50.8614 41.4823C50.5619 42.2091 50.1345 42.718 49.7071 43.3315H49.6344C50.479 42.9724 50.3511 43.8315 50.0632 44.4625C49.8117 45.0135 49.3247 45.8537 49.3247 46.476C49.582 46.4163 49.8205 46.2303 49.9062 46.5966C49.96 46.822 49.7289 47.2668 49.6402 47.4689C49.3814 48.0402 49.0485 48.5752 48.8101 49.1553C49.6053 48.9982 49.1677 49.9446 48.9642 50.3735C48.6981 50.9332 48.3463 51.4551 48.1152 52.0337L48.0788 52.1122C48.8057 51.727 47.8491 53.55 47.8913 53.7215C47.9422 53.7085 47.9974 53.7041 48.0469 53.6896C48.2184 54.2042 47.4755 55.2407 47.1005 55.9182C48.0062 56.0636 46.5626 59.2546 46.5626 59.2546C46.9318 58.6193 48.9598 55.8906 48.9962 56.8966C49.8539 55.9487 49.9862 55.4065 50.2566 55.2407C50.2987 55.2611 50.4674 55.3047 50.4979 55.3512L50.5095 55.3134C50.6128 55.011 50.9457 53.7535 51.3513 53.9629C51.5286 53.5703 51.9764 52.2401 52.5288 52.4233C52.5288 52.4757 52.5492 52.5367 52.5521 52.5861C52.6539 52.3361 53.0958 50.9986 53.4607 51.3999C53.6221 51.1222 54.4783 49.7368 54.7589 50.4346C55.0598 49.9301 55.3244 49.3879 55.6312 48.8848C55.8507 48.5258 56.4118 47.5241 56.6488 48.424L56.6822 48.4371C56.7259 48.0402 57.271 47.3409 57.508 46.9179C57.6286 46.7027 57.7638 46.348 57.9645 46.191C58.2189 45.9991 58.4617 46.1082 58.4326 46.5123C58.4631 46.3248 58.7888 44.7678 59.1202 45.2432L59.142 45.294C59.3515 44.9504 59.5836 44.6211 59.8369 44.3084C60.3792 43.708 60.0346 44.5424 60.4708 44.6878C60.5871 44.4988 61.1715 42.4854 61.5029 43.2341C61.7385 42.9433 61.9943 41.9504 62.4188 41.9257C62.9015 41.8893 62.7474 42.8357 63.0846 42.952L63.0498 42.9389C63.2794 42.465 63.8101 41.8195 64.2055 41.3601C64.4018 41.1319 64.6751 40.7466 64.9963 40.7379C65.4165 40.7278 65.4572 41.1377 65.6026 41.4561C66.1114 40.8746 67.7207 38.7535 68.2935 39.8439L68.4389 39.8613C68.6075 39.2798 69.8548 38.4075 70.3113 39.0428C70.6093 38.8495 71.595 37.8144 71.9279 38.1706C72.8423 37.6065 73.7015 36.948 74.6377 36.4057C75.0971 36.1397 76.311 35.2092 76.8344 35.4927L76.7661 35.4651C76.9958 35.9289 75.5682 37.0933 75.2498 37.4262C74.7003 37.9976 73.6768 38.5776 73.3599 39.2842C73.2421 39.5502 73.277 39.652 73.0124 39.8657C72.7871 40.0401 72.5109 40.1564 72.3146 40.3498C73.3773 40.8688 70.9859 42.0943 70.7969 42.3051L70.8318 42.3196C72.1881 42.795 69.8592 43.8417 69.503 44.1034C69.7822 44.3229 70.3971 44.5613 69.9057 44.9495C69.5466 45.2402 68.9302 45.1487 68.6061 45.4685C68.7049 45.672 68.9244 45.7273 68.9477 45.9759C68.971 46.2245 68.7253 46.4396 68.5319 46.5443C68.0906 46.7629 67.6237 46.9255 67.1421 47.0284L67.0738 47.0008C67.145 47.1621 67.3951 47.2654 67.4212 47.4703C67.4518 47.7131 67.1581 47.9414 66.9851 48.0518C66.4777 48.4022 65.8773 48.3688 65.3394 48.5854C65.5008 48.786 65.8817 48.8761 65.8395 49.1509C65.7974 49.4257 65.2871 49.587 65.0981 49.6742C64.5544 49.9374 63.8799 49.9461 63.3725 50.2339L63.4786 50.1496C63.6007 50.1845 63.938 50.3444 63.9758 50.5858C64.0267 50.9172 63.5789 51.1891 63.3361 51.3126C62.995 51.4838 62.6394 51.6244 62.2734 51.7328C62.0089 51.8084 61.5902 51.756 61.3852 51.929C61.6425 52.4742 62.3897 52.5018 61.5582 52.9612C61.2384 53.1371 60.2832 53.518 60.0128 53.2767L60.0012 53.313C60.936 53.5166 59.8558 54.3815 59.5069 54.5444C58.8771 54.8223 58.2056 54.9938 57.5196 55.0517C57.6185 55.1564 58.088 55.4225 58.0851 55.5329C58.0851 55.7641 57.4048 55.9763 57.2463 56.0345C56.7637 56.2089 55.7925 56.5375 55.323 56.4619L55.2663 56.3979C55.9234 56.8195 55.1427 57.2934 54.6324 57.4301C54.0534 57.582 53.4587 57.6669 52.8603 57.6831C53.3851 58.0683 52.2977 58.2951 52.0811 58.3431C51.6723 58.4606 51.2547 58.5447 50.8323 58.5946L50.7625 58.5684C51.0663 59.0452 47.4508 60.1675 47.4508 60.1675C47.7416 60.0338 49.5748 60.092 49.7318 60.1443C49.9978 60.2315 49.7623 60.3725 50.1519 60.3057C50.5415 60.2388 50.8788 60.0513 51.2495 59.9422C51.5957 59.8515 51.9515 59.8027 52.3093 59.7968C52.4823 59.7881 53.1714 59.8317 52.7454 60.1516H52.8181C53.1976 59.9975 53.6759 59.932 54.0945 59.8361C54.3853 59.7721 56.0658 59.8361 55.2038 60.3013C56.1371 60.3987 57.0515 60.0527 57.9572 60.4728C57.8802 60.6091 57.7593 60.7152 57.6141 60.7738C58.3977 60.829 59.126 60.72 59.8558 61.1038C59.8257 61.164 59.7823 61.2165 59.7289 61.2576C59.6755 61.2986 59.6135 61.327 59.5476 61.3407C59.8384 61.4861 62.003 62.1229 61.6585 62.5837C62.2604 62.7451 62.9058 62.8846 63.483 63.1899C63.7635 63.3353 65.2697 64.2992 64.944 64.6771L65.0545 64.5579C64.4454 64.6103 63.7316 64.2672 63.1181 64.2047C62.7313 64.1719 62.3431 64.1588 61.9551 64.1654C61.689 64.1654 60.9578 64.0564 61.0334 64.4373C59.9838 64.6815 59.1144 64.0215 58.152 63.8558V63.895C58.5198 64.0884 58.937 64.5216 58.4428 64.7208C58.1258 64.8472 57.8147 64.68 57.5109 64.6132C56.8363 64.4678 56.1589 64.3908 55.5032 64.1073C56.3959 64.8487 55.0409 64.76 54.5699 64.6321C54.1736 64.5206 53.7851 64.3832 53.4069 64.2207C53.1583 64.116 52.7004 63.7685 52.459 63.8558C52.5346 64.0477 52.7745 64.1872 52.7498 64.4038C51.8775 64.4445 51.1507 63.2902 50.4005 62.9646C50.7509 63.4923 49.7798 62.7887 49.6736 62.7131C49.3945 62.5052 49.0921 62.3438 48.8014 62.1316C48.3216 61.7725 47.8317 61.5181 47.3476 61.1794L47.2371 61.2971C47.5875 61.2128 48.4655 62.072 48.8232 62.3409C49.1808 62.6099 50.3976 63.4909 50.4121 63.9662C50.354 63.9868 50.2948 64.0042 50.2348 64.0186C50.3918 64.2672 50.7494 64.5754 50.9704 64.7993C51.0591 64.8879 51.4065 65.0595 51.3615 65.2238C51.3164 65.388 51.062 65.3546 50.9631 65.3183C51.4761 65.7946 51.8905 66.3671 52.1828 67.0032C52.4277 67.5149 52.6423 68.0406 52.8254 68.5776C52.9635 68.9861 53.3342 70.1201 52.6422 69.46C52.1938 68.9986 51.778 68.5065 51.3978 67.9874C51.2088 67.7417 50.9951 67.5512 50.7799 67.3201C50.5895 67.1137 50.4499 66.7386 50.1984 66.6208C50.1039 67.2721 49.1546 66.0699 49.0078 65.862C48.8333 65.6134 48.2402 64.6015 47.9654 64.5303C47.6907 64.4591 47.7416 64.8952 47.4741 64.7775C47.3767 64.7353 47.2575 64.2396 47.2066 64.1276C46.817 63.2655 46.2195 62.4587 46.1759 61.4934L46.4521 62.7625C46.4521 66.1803 46.5466 69.6636 46.7079 73.0843C46.7515 74.022 46.6207 74.9219 46.58 75.8363L45.4126 75.672Z" />
</svg>
