<svg class="tablet logo" width="221" height="100" viewBox="0 0 221 100" fill="#10A882" xmlns="http://www.w3.org/2000/svg">
<g clip-path="url(#clip0_564_3359)">
<path d="M85.144 23.19V28.9022C83.452 29.5172 82.058 29.8198 80.962 29.8198C78.0635 29.8198 75.6649 28.8926 73.7709 27.0334C72.8769 26.1398 72.1847 25.0973 71.6944 23.8962C71.1992 22.7 70.9541 21.4845 70.9541 20.2594C70.9541 18.9767 71.2089 17.7324 71.7184 16.5265C72.2279 15.3207 72.9105 14.2782 73.7661 13.4038C75.66 11.4725 78.0058 10.5068 80.7938 10.5068C82.1301 10.5068 83.5818 10.8239 85.144 11.4533V17.2231C84.0481 15.8684 82.6445 15.191 80.9332 15.191C79.6113 15.191 78.4961 15.5993 77.5876 16.416C76.5109 17.4201 75.9725 18.6932 75.9725 20.2354C75.9725 21.7007 76.4724 22.9114 77.477 23.8578C78.3855 24.7129 79.5392 25.1405 80.9332 25.1405C82.5531 25.1405 83.9567 24.4871 85.144 23.19Z" />
<path d="M100.699 29.402L99.5548 26.2793H92.8059L91.5513 29.402H86.4512L93.5894 10.8145H98.8578L105.857 29.402H100.699ZM94.147 22.604H98.2713L96.1803 16.5843L94.147 22.604Z" />
<path d="M112.827 29.402H108.006V10.8145H112.827L121.72 22.1813V10.8145H126.541V29.402H121.72L112.827 18.0352V29.402Z" />
<path d="M135.271 29.402H130.449V10.8145H135.271L144.163 22.1813V10.8145H148.985V29.402H144.163L135.271 18.0352V29.402Z" />
<path d="M165.38 29.402L164.236 26.2793H157.488L156.233 29.402H151.133L158.271 10.8145H163.539L170.538 29.402H165.38ZM158.829 22.604H162.953L160.862 16.5843L158.829 22.604Z" />
<path d="M180.436 29.402H172.688V10.8145H179.879C181.72 10.8145 183.075 11.2997 183.95 12.2653C184.71 13.1013 185.094 14.2639 185.094 15.7484C185.094 16.5651 184.916 17.329 184.565 18.0352C184.195 18.7222 183.69 19.2074 183.061 19.4861C184.104 19.5966 184.945 19.9713 185.599 20.6007C186.435 21.3982 186.853 22.532 186.853 24.0021C186.853 25.525 186.397 26.7405 185.488 27.6533C184.349 28.8159 182.667 29.402 180.436 29.402ZM177.509 14.5233V18.1457H178.403C179.259 18.1457 179.869 17.9487 180.244 17.5596C180.542 17.2617 180.691 16.8534 180.691 16.3345C180.691 15.8349 180.542 15.4169 180.244 15.0806C179.874 14.7107 179.259 14.5233 178.403 14.5233H177.509ZM177.509 21.7393V25.6403H178.595C180.157 25.6403 181.152 25.3905 181.58 24.886C181.84 24.5882 181.97 24.1894 181.97 23.6898C181.97 23.1133 181.811 22.6665 181.494 22.3542C181.085 21.9458 180.09 21.7393 178.509 21.7393H177.509Z" />
<path d="M189.915 10.8145H194.736V29.402H189.915V10.8145Z" />
<path d="M197.803 27.7302L199.865 23.8292C201.201 25.0927 202.624 25.7221 204.129 25.7221C204.984 25.7221 205.604 25.5107 205.998 25.0831C206.316 24.766 206.474 24.3769 206.474 23.9109C206.474 23.4641 206.296 23.0941 205.946 22.7963C205.648 22.5368 204.85 22.2102 203.547 21.821L202.292 21.4319C201.047 21.0427 200.153 20.5383 199.615 19.9282C198.908 19.1691 198.557 18.0689 198.557 16.6421C198.557 14.7828 199.125 13.2887 200.259 12.1549C201.432 10.9827 203.018 10.4014 205.027 10.4014C206.941 10.4014 208.854 10.901 210.772 11.9051L208.849 15.6668C207.791 14.8309 206.729 14.4129 205.672 14.4129C205.003 14.4129 204.475 14.6003 204.081 14.9702C203.763 15.2873 203.605 15.6188 203.605 15.9743C203.605 16.3106 203.686 16.5892 203.855 16.8102C204.114 17.1273 204.653 17.4059 205.47 17.6461L206.945 18.0929C208.508 18.5782 209.632 19.1883 210.32 19.933C211.118 20.7881 211.517 21.8931 211.517 23.2479C211.517 25.1984 210.93 26.7598 209.762 27.9272C208.498 29.1907 206.667 29.8201 204.268 29.8201C202.946 29.8201 201.73 29.6135 200.615 29.2051C199.673 28.8736 198.735 28.3788 197.803 27.7302Z" />
<path d="M87.5471 33.875V39.4527H79.7263V43.666H87.1289V49.2437H79.7263V53.606H87.5471V59.1837H73.1553V33.875H87.5471Z" />
<path d="M117.052 55.1668L121.417 59.6443L115.38 60.5571L113.255 58.1262C111.255 59.2119 109.039 59.7596 106.607 59.7596C102.151 59.7596 98.6323 58.3664 96.051 55.5847C93.6716 53.0529 92.4795 50.007 92.4795 46.4375C92.4795 44.6647 92.8256 42.964 93.5226 41.3306C94.2196 39.6972 95.1762 38.2991 96.3875 37.1365C99.0217 34.5807 102.362 33.3027 106.415 33.3027C108.289 33.3027 110.111 33.6246 111.885 34.2684C113.659 34.9122 115.187 35.8586 116.48 37.0981C119.086 39.6011 120.393 42.7767 120.393 46.6249C120.393 48.4216 120.052 50.1175 119.369 51.7125C118.812 53.0529 118.043 54.2011 117.052 55.1668ZM104.41 49.0942L110.601 48.2967L112.346 50.1944C113.13 49.0798 113.524 47.8403 113.524 46.4759C113.524 45.6928 113.341 44.8713 112.971 44.0114C112.606 43.1514 112.106 42.4067 111.472 41.7726C110.813 41.1144 110.02 40.6004 109.097 40.2352C108.174 39.8701 107.28 39.6827 106.419 39.6827C104.42 39.6827 102.747 40.3794 101.406 41.7726C100.041 43.1898 99.3533 44.8857 99.3533 46.8603C99.3533 48.7051 99.9879 50.2376 101.252 51.4531C102.593 52.7454 104.304 53.3892 106.381 53.3892C107.04 53.3892 107.722 53.3027 108.434 53.125L104.41 49.0942Z" />
<path d="M126.508 33.875H133.079V48.869C133.079 50.6418 133.507 51.9437 134.372 52.7796C135.232 53.5916 136.271 53.9951 137.487 53.9951C138.703 53.9951 139.712 53.63 140.525 52.8949C140.981 52.4914 141.327 51.9773 141.568 51.3576C141.808 50.7378 141.943 50.243 141.967 49.8779C141.991 49.5128 142.005 48.9843 142.005 48.3021V33.875H148.576V48.4126C148.576 49.5272 148.538 50.4448 148.461 51.1654C148.384 51.886 148.124 52.7604 147.682 53.7837C147.24 54.807 146.586 55.7535 145.726 56.6134C143.649 58.7129 140.866 59.765 137.371 59.765C133.675 59.765 130.877 58.7513 128.979 56.7287C127.335 54.9319 126.513 52.1599 126.513 48.4174V33.875H126.508Z" />
<path d="M155.786 33.875H162.357V59.1885H155.786V33.875Z" />
<path d="M184.532 39.4527H179.138V59.1885H172.567V39.4527H167.174V33.875H184.527V39.4527H184.532Z" />
<path d="M196.342 59.1885V47.0434L187.189 33.875H195.049L199.832 40.7835L204.427 33.875H212.402L202.946 47.0434V59.1885H196.342Z" />
<path d="M73.1318 66.8652H78.8713V88.9743H73.1318V66.8652Z" />
<path d="M84.3418 66.8652H90.0812V84.1028H96.9791V88.9743H84.3418V66.8652Z" />
<path d="M100.762 66.8652H106.501V84.1028H113.399V88.9743H100.762V66.8652Z" />
<path d="M117.177 66.8652H122.916V88.9743H117.177V66.8652Z" />
<path d="M134.126 88.9743H128.387V66.8652H134.126L144.706 80.3891V66.8652H150.446V88.9743H144.706L134.126 75.4504V88.9743Z" />
<path d="M179.33 77.9348C179.33 81.2065 178.167 83.9593 175.845 86.1884C173.547 88.3744 170.639 89.4697 167.121 89.4697C163.607 89.4697 160.699 88.3744 158.396 86.1884C156.074 83.9545 154.911 81.2065 154.911 77.9348C154.911 76.4118 155.204 74.9177 155.791 73.4572C156.377 71.9968 157.242 70.7284 158.396 69.6475C160.694 67.4616 163.602 66.3662 167.121 66.3662C170.634 66.3662 173.543 67.4616 175.845 69.6475C176.994 70.7284 177.864 72.0016 178.45 73.4572C179.037 74.9177 179.33 76.4118 179.33 77.9348ZM167.125 71.9343C165.313 71.9343 163.818 72.5204 162.645 73.6927C161.473 74.8409 160.886 76.2917 160.886 78.0357C160.886 79.6499 161.473 81.0191 162.645 82.1481C163.862 83.3203 165.352 83.9064 167.125 83.9064C168.938 83.9064 170.418 83.3299 171.572 82.1817C172.764 80.9903 173.365 79.573 173.365 77.9396C173.365 76.2581 172.769 74.8457 171.572 73.6975C170.332 72.5204 168.851 71.9343 167.125 71.9343Z" />
<path d="M183.811 66.8652H189.55V88.9743H183.811V66.8652Z" />
<path d="M194.024 86.9858L196.481 82.3449C198.072 83.8486 199.764 84.5981 201.557 84.5981C202.576 84.5981 203.316 84.3435 203.778 83.8342C204.153 83.4595 204.34 82.9935 204.34 82.441C204.34 81.9125 204.128 81.4705 203.71 81.115C203.355 80.8076 202.408 80.4184 200.86 79.9524L199.37 79.4864C197.889 79.0204 196.827 78.4247 196.188 77.6944C195.346 76.7864 194.928 75.4845 194.928 73.7838C194.928 71.5738 195.601 69.7963 196.952 68.4463C198.346 67.0531 200.235 66.3564 202.624 66.3564C204.902 66.3564 207.181 66.9522 209.455 68.1484L207.166 72.626C205.907 71.6315 204.648 71.1318 203.383 71.1318C202.585 71.1318 201.956 71.3528 201.494 71.7948C201.119 72.1696 200.932 72.5683 200.932 72.9863C200.932 73.385 201.033 73.7165 201.23 73.9808C201.538 74.3555 202.182 74.687 203.153 74.9752L204.912 75.5037C206.767 76.0802 208.109 76.8056 208.926 77.6896C209.878 78.7081 210.353 80.0197 210.353 81.6339C210.353 83.9543 209.656 85.8088 208.262 87.202C206.758 88.7057 204.58 89.4552 201.73 89.4552C200.158 89.4552 198.711 89.2102 197.384 88.7249C196.245 88.3454 195.13 87.7593 194.024 86.9858Z" />
<path d="M55.8324 62.6185C54.1115 60.668 54.6787 57.8768 54.8806 57.1177L53.7606 48.1963L53.751 39.025L52.0398 30.5167L52.5445 16.9207C50.54 17.6366 50.0641 12.4864 49.968 9.08984L40.6234 9.47899L32.7786 9.945L25.3663 10.2957L18.3531 10.5263C19.6317 11.5208 20.1797 13.0053 20.3816 13.7692C22.1553 14.5523 23.2657 15.5756 23.6743 16.8102C24.0637 17.9825 23.6743 18.9625 23.5061 19.3228C22.7754 22.7002 21.4776 24.9918 19.6173 26.14C18.5838 26.7838 17.6128 26.9087 16.9783 26.9087C16.7332 26.9087 16.5265 26.8895 16.3775 26.8655C14.7191 27.2258 13.6616 27.7927 13.3972 28.4701C13.1857 29.0178 13.5654 29.5991 13.575 29.5991C15.0315 31.1605 15.666 32.7651 15.4257 34.2976C15.2046 35.6909 14.2961 36.6085 13.7481 37.0408V40.8602H11.4023C11.6138 42.2198 11.6042 43.6659 10.5371 44.1751C10.3785 44.2472 10.2102 44.2808 10.0324 44.3C10.1814 46.4523 9.96025 48.9361 9.91699 49.3349C10.0035 49.9258 10.4217 52.6161 12.133 53.4185L12.3252 53.5434L18.1656 59.2027C18.5021 59.2652 19.0837 59.4478 19.5692 59.9858C20.3912 60.8938 20.6556 62.436 20.372 64.5787H26.1979L26.3662 65.2945C26.4094 65.4867 27.3996 69.8777 24.727 75.4891L29.9569 80.7977L33.812 81.2493L34.0428 81.6193C34.6773 82.6137 37.7056 87.5525 36.0376 89.8009C36.1097 91.0019 36.4895 92.4288 37.1913 92.8948C37.3836 93.0197 37.5806 93.0725 37.8354 93.0725C38.0036 93.0725 38.2055 93.0293 38.417 92.9669C38.9122 91.5304 39.7774 90.5936 40.9839 90.1708C41.4262 90.0123 41.9261 89.9402 42.45 89.9402C44.0219 89.9402 45.6418 90.6368 46.7474 91.2469L46.781 90.6368C46.1177 89.21 46.0744 87.9993 46.6416 87.048C47.5694 85.4867 49.7373 85.4002 49.8334 85.4002C50.1507 85.4194 50.415 85.4434 50.6698 85.4434C50.8092 85.4434 50.9438 85.4434 51.0495 85.4338C50.7131 85.1504 50.4487 84.8333 50.2468 84.5066C49.2518 82.8684 50.2132 81.1821 51.4005 80.1684L52.1696 72.5873L53.0684 72.7459C53.4482 72.4192 54.4192 70.4783 55.0729 67.639L55.1787 67.197L55.5921 67.0048C56.2362 66.7118 56.2362 64.5258 55.8324 62.6185ZM45.6803 44.3385C45.4447 44.7805 44.791 45.184 44.791 45.184L45.2236 45.3714C44.8871 46.0199 44.2863 46.1881 44.2863 46.1881L44.5843 46.4956C44.1997 47.1057 43.3633 47.5285 43.3633 47.5285L43.5989 47.9128C43.2047 48.4365 42.1183 48.7872 42.1183 48.7872L42.4452 49.1619C41.7674 49.9882 40.8397 50.0891 40.8397 50.0891L41.0368 50.4831C40.6811 50.9971 39.2919 51.0836 39.2919 51.0836L39.4409 51.3911C38.4459 52.0492 37.8066 52.1213 37.8066 52.1213L37.9267 52.4048C37.2778 52.5921 36.0232 53.2311 35.2541 53.6443C35.2733 53.6731 35.2829 53.7115 35.2926 53.7451C35.8742 53.5866 36.6818 53.3416 37.0663 53.1446L37.1336 53.3416C37.1336 53.3416 37.4989 53.0774 38.3161 52.9284L38.393 53.1734C38.393 53.1734 39.1429 52.5441 39.5755 52.6402L39.662 52.9332C39.662 52.9332 40.186 52.5393 40.931 52.6354L40.9407 52.9909C40.9407 52.9909 41.6617 52.645 42.1135 52.717L42.1808 53.0245C42.1808 53.0245 42.8105 52.8371 43.3056 52.9572L43.2864 53.2647C43.2864 53.2647 43.6806 53.0581 44.1613 53.2263L44.0411 53.5338C44.0411 53.5338 44.5651 53.4233 44.9063 53.5338L44.8967 53.6827C44.8967 53.6827 45.911 53.7307 46.7089 54.1055C46.3051 54.2832 45.8533 54.3793 45.4976 54.4225C45.1419 54.4706 44.8871 54.4802 44.8871 54.4802V54.6291C44.5506 54.73 44.0219 54.6099 44.0219 54.6099L44.142 54.9174C43.6517 55.0663 43.2672 54.8501 43.2672 54.8501V55.148C42.7721 55.2585 42.152 55.0567 42.152 55.0567L42.0751 55.3642C41.6136 55.4314 40.9022 55.0663 40.9022 55.0663L40.883 55.4122C40.1427 55.4891 39.6236 55.0759 39.6236 55.0759L39.5274 55.3738C39.0948 55.4506 38.3642 54.8021 38.3642 54.8021L38.2873 55.0279C37.4701 54.8597 37.1144 54.5859 37.1144 54.5859L37.0375 54.7829C36.6625 54.5763 35.855 54.312 35.2733 54.1151C35.2108 54.312 35.0618 54.461 34.8792 54.5426C34.8647 55.7965 34.7494 58.3524 34.0668 59.3421L33.6198 59.0346C34.1726 58.2371 34.3168 55.9551 34.336 54.5667C34.1101 54.485 33.9466 54.2976 33.8938 54.0574C33.3121 54.2256 32.543 54.461 32.1681 54.6483L32.1008 54.4514C32.1008 54.4514 31.7355 54.7156 30.9183 54.8549L30.8414 54.6195C30.8414 54.6195 30.0915 55.2489 29.6589 55.1528L29.5724 54.8549C29.5724 54.8549 29.0484 55.2489 28.3033 55.1624L28.2937 54.8069C28.2937 54.8069 27.5727 55.1528 27.1208 55.0807L27.0439 54.7732C27.0439 54.7732 26.4142 54.9606 25.9287 54.8309L25.9384 54.533C25.9384 54.533 25.5538 54.7396 25.0635 54.5715L25.1933 54.264C25.1933 54.264 24.6693 54.3745 24.328 54.264L24.3377 54.1151C24.3377 54.1151 23.3138 54.067 22.5255 53.6923C22.9292 53.5145 23.3811 53.4185 23.7368 53.3752C24.0925 53.3272 24.3473 53.3176 24.3473 53.3176V53.1686C24.6838 53.0677 25.2125 53.1879 25.2125 53.1879L25.0923 52.8804C25.5826 52.7314 25.9672 52.9476 25.9672 52.9476V52.6402C26.4623 52.5393 27.0728 52.7363 27.0728 52.7363L27.1593 52.4384C27.6112 52.3711 28.3226 52.7363 28.3226 52.7363L28.3514 52.3807C29.0917 52.3135 29.6012 52.7266 29.6012 52.7266L29.6973 52.4288C30.1396 52.3519 30.8606 53.0005 30.8606 53.0005L30.9471 52.7651C31.7643 52.9332 32.12 53.2167 32.12 53.2167L32.1873 53.0197C32.5526 53.2167 33.3314 53.4809 33.913 53.6683C33.913 53.6491 33.9226 53.6298 33.9226 53.6202C33.1631 53.1879 31.9325 52.5153 31.2836 52.3087L31.423 52.0444C31.423 52.0444 30.7837 51.9436 29.8079 51.2566L29.9761 50.9491C29.9761 50.9491 28.587 50.829 28.2409 50.2909L28.4572 49.9066C28.4572 49.9066 27.5294 49.7768 26.8709 48.9313L27.2266 48.5662C27.2266 48.5662 26.1402 48.1818 25.7509 47.6582L25.996 47.2738C25.996 47.2738 25.1789 46.8222 24.8039 46.2025L25.1308 45.9094C25.1308 45.9094 24.5203 45.7221 24.2031 45.0639L24.6453 44.8765C24.6453 44.8765 24.006 44.4538 23.7801 44.0022L23.9387 43.8628C23.9387 43.8628 22.9629 42.7819 22.5303 41.6097V41.6001C23.7128 42.0613 24.7559 43.0653 24.7559 43.0653L24.9049 42.9164C25.3471 43.1518 25.7509 43.8052 25.7509 43.8052L25.948 43.3728C26.5969 43.7091 26.7651 44.3096 26.7651 44.3096L27.0728 44.0118C27.6736 44.4057 28.0966 45.2321 28.0966 45.2321L28.4908 44.9966C29.0148 45.3906 29.3657 46.486 29.3657 46.486L29.7406 46.1497C30.5674 46.8367 30.6683 47.7639 30.6683 47.7639L31.0625 47.5573C31.5768 47.9128 31.6634 49.3108 31.6634 49.3108L31.971 49.1523C32.6295 50.1468 32.7016 50.7857 32.7016 50.7857L32.9756 50.6656C33.1631 51.3046 33.7832 52.5249 34.1966 53.2935C34.2447 53.2647 34.2927 53.2359 34.3456 53.2263C34.062 52.2222 33.5669 50.4975 33.1727 49.748L33.5188 49.6279C33.5188 49.6279 33.067 48.9986 32.817 47.5909L33.2208 47.4708C33.2208 47.4708 32.1392 46.1785 32.3027 45.4338L32.817 45.2849C32.817 45.2849 32.1392 44.3865 32.2931 43.099L32.9035 43.0894C32.9035 43.0894 32.3123 41.8307 32.4325 41.062L32.966 40.9419C32.966 40.9419 32.6584 39.8609 32.8651 39.0202L33.389 39.0394C33.389 39.0394 33.0333 38.362 33.3217 37.5309L33.8553 37.7567C33.8553 37.7567 33.6678 36.8487 33.8553 36.277L34.1293 36.2722C34.1293 36.2722 34.2158 34.5186 34.8503 33.159C34.8503 33.1494 34.8599 33.1494 34.8599 33.1494C35.4704 34.5474 35.4993 36.2914 35.4993 36.2914H35.7636C35.9415 36.8727 35.7252 37.7711 35.7252 37.7711L36.2587 37.5645C36.5231 38.4004 36.1482 39.0634 36.1482 39.0634H36.6721C36.8596 39.9186 36.5135 40.9851 36.5135 40.9851L37.0375 41.1148C37.148 41.8931 36.5231 43.1326 36.5231 43.1326L37.124 43.171C37.2442 44.449 36.5424 45.3281 36.5424 45.3281L37.0471 45.4867C37.1865 46.2361 36.0617 47.4948 36.0617 47.4948L36.4654 47.6342C36.177 49.0418 35.6963 49.6519 35.6963 49.6519L36.0424 49.772C35.6387 50.5119 35.0955 52.1934 34.783 53.1975C34.8599 53.2167 34.932 53.2551 34.9897 53.2935C35.4223 52.5345 36.0809 51.343 36.2828 50.7041L36.5568 50.8338C36.5568 50.8338 36.6577 50.1948 37.3355 49.2196L37.6431 49.3877C37.6431 49.3877 37.7104 48.6286 37.9604 48.0954C38.0854 47.8215 38.4219 47.7206 38.6862 47.8696C38.6862 47.8696 38.816 46.952 39.662 46.2842L40.0273 46.6397C40.0273 46.6397 40.4119 45.5491 40.9359 45.1744L41.3204 45.4098C41.3204 45.4098 41.7723 44.5931 42.3923 44.228L42.6808 44.545C42.6808 44.545 42.8682 43.9445 43.5268 43.6274L43.7142 44.0694C43.7142 44.0694 44.1372 43.4209 44.5891 43.1951L44.7285 43.3536C44.7285 43.3536 45.81 42.3783 46.9829 41.9556H46.9925C46.5311 43.1278 45.5264 44.1703 45.5264 44.1703L45.6803 44.3385Z" />
</g>
<defs>
<clipPath id="clip0_564_3359">
<rect width="220.809" height="100" fill="white"/>
</clipPath>
</defs>
</svg>
