<svg fill="#126B55" class="social-media-icon" xmlns="http://www.w3.org/2000/svg" xmlns:xlink="http://www.w3.org/1999/xlink" version="1.1" id="Capa_1" x="0px" y="0px" viewBox="0 0 32 31" style="enable-background:new 0 0 512 512;" xml:space="preserve">
    <title id="twitter-logo">See Twitter page</title>
    <path d="M28.101 0.00585938H3.90536C2.08382 0.00585938 0.605957 1.48247 0.605957 3.30248V27.4777C0.605957 29.2977 2.08382 30.7743 3.90536 30.7743H28.101C29.9226 30.7743 31.4004 29.2977 31.4004 27.4777V3.30248C31.4004 1.48247 29.9226 0.00585938 28.101 0.00585938ZM24.7397 10.9122C24.7535 11.1045 24.7535 11.3036 24.7535 11.496C24.7535 17.4505 20.2168 24.3116 11.927 24.3116C9.37 24.3116 6.99856 23.5698 5.00517 22.2924C5.36947 22.3336 5.72004 22.3473 6.09122 22.3473C8.20147 22.3473 10.1399 21.6331 11.6865 20.4243C9.70682 20.3831 8.04337 19.085 7.47285 17.2994C8.1671 17.4024 8.79261 17.4024 9.50748 17.217C7.44535 16.798 5.89875 14.9849 5.89875 12.794V12.739C6.49677 13.0756 7.1979 13.2816 7.93339 13.3091C7.31504 12.8981 6.80814 12.3406 6.45791 11.6863C6.10769 11.032 5.92503 10.3012 5.92625 9.55919C5.92625 8.7213 6.14621 7.95209 6.53801 7.28589C8.75824 10.0193 12.092 11.805 15.8313 11.9973C15.1921 8.94107 17.481 6.46174 20.2305 6.46174C21.5297 6.46174 22.6982 7.00431 23.5231 7.88341C24.5404 7.6911 25.5165 7.31336 26.3826 6.79827C26.0458 7.8422 25.3378 8.7213 24.4029 9.2776C25.3103 9.18145 26.1901 8.92733 27.0012 8.57707C26.3894 9.47677 25.6196 10.2735 24.7397 10.9122Z" />
</svg>
